<?xml version="1.0" standalone="no"?>
<!DOCTYPE svg PUBLIC "-//W3C//DTD SVG 20010904//EN"
 "http://www.w3.org/TR/2001/REC-SVG-20010904/DTD/svg10.dtd">
<svg version="1.0" xmlns="http://www.w3.org/2000/svg"
 width="700.000000pt" height="700.000000pt" viewBox="0 0 700.000000 700.000000"
 preserveAspectRatio="xMidYMid meet">
<metadata>
Created by potrace 1.14, written by Peter Selinger 2001-2017
</metadata>
<g transform="translate(0.000000,700.000000) scale(0.100000,-0.100000)"
fill="#000000" stroke="none">
<path d="M725 6879 c-234 -57 -433 -217 -540 -434 -88 -178 -80 133 -83 -2919
-2 -2699 -2 -2709 18 -2795 68 -287 293 -520 585 -608 57 -17 193 -18 2769
-20 2694 -3 2709 -3 2795 17 169 40 339 146 448 280 69 85 137 224 163 330 20
84 20 111 20 2770 0 2662 0 2686 -20 2770 -57 238 -217 439 -435 545 -181 89
136 80 -2925 82 -2667 2 -2716 1 -2795 -18z m3719 -574 c272 -58 433 -387 335
-686 -45 -138 -144 -254 -266 -312 -63 -30 -76 -32 -173 -32 -99 0 -109 2
-173 33 -177 87 -290 301 -273 516 22 274 217 482 461 495 11 0 51 -6 89 -14z
m-1641 -15 c198 -61 336 -271 337 -510 0 -188 -96 -368 -241 -454 -155 -90
-366 -57 -502 79 -101 101 -157 242 -157 395 0 342 273 579 563 490z m2594
-440 c34 -15 82 -49 107 -73 188 -188 132 -496 -113 -614 -49 -24 -68 -27
-151 -28 -83 0 -102 3 -153 27 -80 38 -158 115 -193 191 -26 54 -29 73 -29
157 0 82 4 103 27 152 91 195 313 278 505 188z m-3439 -5 c81 -36 161 -121
192 -202 27 -71 30 -186 6 -253 -40 -109 -120 -191 -225 -231 -81 -30 -213
-24 -292 14 -70 34 -141 109 -177 185 -23 49 -27 70 -27 152 0 82 4 103 26
151 47 99 128 171 232 205 69 23 190 13 265 -21z m-674 -554 c75 -37 128 -92
164 -170 37 -80 37 -192 0 -273 -35 -75 -94 -138 -165 -173 -51 -26 -69 -29
-148 -30 -79 0 -97 3 -149 29 -75 37 -131 93 -165 165 -35 76 -37 211 -4 283
42 92 140 174 237 199 63 16 162 4 230 -30z m4751 18 c118 -44 211 -169 222
-299 20 -217 -190 -410 -404 -371 -115 22 -205 88 -260 193 -25 47 -28 64 -28
148 0 82 4 103 26 151 42 89 126 161 219 190 52 15 168 10 225 -12z m-1400
-104 c201 -42 506 -174 699 -303 491 -329 776 -813 803 -1362 15 -317 -52
-546 -262 -895 -235 -391 -655 -889 -1206 -1430 -290 -285 -491 -422 -737
-505 -146 -49 -254 -63 -437 -57 -226 8 -362 41 -560 137 -396 191 -587 457
-587 815 0 184 46 328 159 498 98 147 212 243 438 370 128 71 230 143 293 206
142 142 261 353 323 571 35 125 33 362 -4 579 -15 85 -30 202 -33 260 -19 309
118 690 325 904 164 171 341 241 586 233 66 -2 156 -12 200 -21z m-1770 -15
c231 -73 382 -218 519 -497 l67 -135 -21 -81 c-46 -187 -46 -358 2 -622 18
-96 22 -158 22 -310 0 -179 -1 -195 -28 -280 -64 -209 -192 -422 -330 -551
-52 -49 -125 -104 -192 -143 -60 -36 -151 -90 -203 -120 -173 -103 -316 -262
-405 -451 -56 -119 -71 -187 -71 -335 0 -141 19 -233 70 -338 24 -49 14 -40
-146 123 -721 736 -1137 1334 -1220 1755 -9 46 -14 139 -14 275 1 174 4 220
23 307 101 462 360 835 768 1106 231 153 504 268 738 313 109 21 332 12 421
-16z m-2009 -564 c60 -27 115 -80 146 -139 19 -35 23 -58 23 -137 0 -79 -4
-102 -23 -137 -97 -182 -341 -225 -485 -85 -21 20 -51 60 -65 87 -23 43 -27
62 -27 135 0 73 4 92 27 136 79 151 250 210 404 140z m5592 5 c66 -33 119 -87
149 -149 22 -47 27 -71 27 -132 0 -89 -22 -145 -80 -210 -120 -133 -338 -133
-458 0 -59 66 -81 122 -81 210 0 142 85 255 225 301 47 16 172 4 218 -20z
m155 -739 c99 -44 161 -141 160 -252 -2 -242 -297 -365 -468 -195 -55 56 -79
116 -80 200 0 60 4 78 31 125 74 130 223 181 357 122z m-5943 -3 c97 -43 160
-138 160 -240 0 -111 -47 -192 -141 -244 -46 -26 -65 -30 -129 -30 -65 0 -82
4 -130 31 -190 108 -184 381 12 478 67 33 161 36 228 5z"/>
</g>
</svg>
