<?xml version="1.0" encoding="utf-8"?>
<!-- Generator: Adobe Illustrator 22.0.1, SVG Export Plug-In . SVG Version: 6.00 Build 0)  -->
<svg version="1.1" id="Layer_1" xmlns="http://www.w3.org/2000/svg" xmlns:xlink="http://www.w3.org/1999/xlink" x="0px" y="0px"
	 viewBox="0 0 512 512" style="enable-background:new 0 0 512 512;" xml:space="preserve">
<style type="text/css">
	.st0{fill:#14B8A6;}
	.st1{fill:#FFFFFF;}
	.st2{fill:#CCFBF1;}
	.st3{fill:#99F6E4;}
</style>
<g>
	<path id="Fondo" class="st0" d="M505.1,67.3v377.3c0,33.4-27.1,60.5-60.5,60.5H67.4C34,505,6.9,478,6.9,444.6V67.3
		C6.9,33.9,34,6.9,67.4,6.9h377.3C478,6.9,505.1,33.9,505.1,67.3z"/>
	<g id="PieDcho">
		<path id="PieDcho_x5F_Dedo1" class="st1" d="M284.9,86c1.5-21.1,17.6-37.1,36-35.8c18.4,1.3,32.1,19.5,30.6,40.5
			c-1.5,21.1-17.6,37.1-36,35.8C297.1,125.3,283.4,107.1,284.9,86z"/>
		<path id="PieDcho_x5F_Dedo2" class="st1" d="M358.3,97c6.7-13.7,23.2-19.4,36.9-12.7c13.7,6.7,19.4,23.2,12.7,36.9
			c-6.7,13.7-23.2,19.4-36.9,12.7C357.3,127.2,351.6,110.7,358.3,97z"/>
		<path id="PieDcho_x5F_Dedo3" class="st1" d="M409.2,136.3c6.2-12.7,21.4-17.9,34.1-11.8c12.7,6.2,17.9,21.4,11.8,34.1
			c-6.1,12.6-21.4,17.9-34.1,11.8C408.3,164.2,403,149,409.2,136.3z"/>
		<path id="PieDcho_x5F_Dedo4" class="st1" d="M451.9,214.3c-11.3-5.5-16-19.1-10.5-30.4c5.5-11.3,19.1-16,30.4-10.5
			c11.3,5.5,16,19.1,10.5,30.4C476.8,215.1,463.2,219.8,451.9,214.3z"/>
		<path id="PieDcho_x5F_Dedo5" class="st1" d="M492.7,254.5c-4.9,10-16.9,14.1-26.9,9.3c-10-4.9-14.2-16.9-9.3-26.9
			c4.9-10,16.9-14.1,26.9-9.3C493.5,232.4,497.6,244.5,492.7,254.5z"/>
		<path id="PieDcho_x5F_Planta" class="st1" d="M440.3,299.1c-19.8,40.6-50.8,75.3-98.2,123.6c-2.9,2.9-5.7,5.6-8.5,8.2
			c-27,24.9-51.7,34.4-76.1,33.5h-0.3c-15.5,0-31.1-3.7-47.4-12.7c-0.5-0.2-1-0.5-1.4-0.8c-5.5-3.1-11-6.8-16.6-11.3
			c-21.7-19.6-23.8-47-16.5-66.1c0.6-1.5,1.2-2.9,1.8-4.2c22.8-46.8,52.8-28.2,77.1-78c19.9-40.9-1.7-60.5,4.7-97.3
			c1.4-7.8,4-16.4,8.6-26.1c0.3-0.6,0.5-1.2,0.8-1.8c7.9-16.2,18.7-27.1,32.2-32.5c0.9-0.4,1.8-0.7,2.7-1c1-0.3,2.1-0.6,3.1-0.9
			c0.5-0.2,1.1-0.3,1.6-0.4c0.5-0.1,1.1-0.3,1.7-0.4c2.7-0.6,5.4-1,8.3-1.1c2-0.1,4-0.2,6.1-0.1c1,0,1.9,0.1,2.9,0.1
			c3,0.2,6.1,0.6,9.2,1.1c0.6,0.1,1.2,0.2,1.8,0.3c1.2,0.2,2.4,0.5,3.7,0.8c3.1,0.7,6.2,1.6,9.5,2.6c6.6,2.1,13.5,4.9,20.7,8.5
			C449.6,181.1,460,258.5,440.3,299.1z"/>
	</g>
	<g id="PieIzq">
		<path id="PieIzq_x5F_Dedo5" class="st2" d="M49.1,263.7c-10,4.9-22.1,0.7-26.9-9.3c-4.9-10-0.7-22.1,9.3-26.9s22-0.7,26.9,9.3
			C63.3,246.8,59.1,258.9,49.1,263.7z"/>
		<path id="PieIzq_x5F_Dedo4" class="st2" d="M63.1,214.3c-11.3,5.5-24.9,0.8-30.4-10.5c-5.5-11.3-0.8-24.9,10.5-30.4
			c11.3-5.5,24.9-0.8,30.4,10.5C79.1,195.2,74.4,208.8,63.1,214.3z"/>
		<path id="PieIzq_x5F_Dedo3" class="st2" d="M94,170.4c-12.6,6.1-27.9,0.9-34.1-11.8c-6.1-12.6-0.9-27.9,11.8-34.1
			c12.6-6.2,27.9-0.9,34.1,11.8C111.9,149,106.7,164.2,94,170.4z"/>
		<path id="PieIzq_x5F_Dedo2" class="st2" d="M143.9,133.9c-13.7,6.7-30.2,1-36.9-12.7c-6.7-13.7-1-30.2,12.7-36.9
			c13.7-6.7,30.2-1,36.9,12.7C163.3,110.7,157.6,127.2,143.9,133.9z"/>
		<path id="PieIzq_x5F_Dedo1" class="st2" d="M199.4,126.5c-18.4,1.3-34.5-14.7-36-35.8C162,69.6,175.6,51.5,194,50.2
			c18.4-1.3,34.5,14.8,36,35.8C231.5,107.1,217.8,125.3,199.4,126.5z"/>
		<path id="PieIzq_x5F_Planta" class="st2" d="M245.1,288c-24.3,49.8-54.3,31.2-77.1,78c-7.2,14.8-8.2,36.1,3.3,54.9
			c0.1,0.2,0.2,0.4,0.4,0.6c-46.7-47.7-77.4-82.1-97-122.3c-19.8-40.6-9.4-118.1,68.5-156c49.3-24,84.7-15.6,103.5,23
			c2,4.1,4,8.5,6,12.8C238.5,223.8,267,243,245.1,288z"/>
		<path id="Sombra" class="st3" d="M254.1,291.3c-24.3,49.8-54.3,31.2-77.1,78c-0.7,1.4-1.3,2.8-1.8,4.2
			c-7.3,19.1-5.2,46.5,16.5,66.1c-6.1-4.8-12.4-10.4-18.8-16.9c-0.4-0.4-0.8-0.9-1.2-1.3c-0.1-0.2-0.2-0.4-0.4-0.6
			c-11.5-18.8-10.6-40-3.3-54.9c22.8-46.8,52.8-28.2,77.1-78c21.9-45-6.5-64.2,7.6-109c1.6,3.7,3.1,7.2,4.4,10.5
			c0.7,1.7,1.3,3.3,1.8,4.5C252.4,230.8,274,250.4,254.1,291.3z"/>
	</g>
</g>
</svg>
