<?xml version="1.0" encoding="utf-8"?>
<!-- Generator: Adobe Illustrator 22.0.1, SVG Export Plug-In . SVG Version: 6.00 Build 0)  -->
<svg version="1.1" id="Layer_1" xmlns="http://www.w3.org/2000/svg" xmlns:xlink="http://www.w3.org/1999/xlink" x="0px" y="0px"
	 viewBox="0 0 512 512" style="enable-background:new 0 0 512 512;" xml:space="preserve">
<style type="text/css">
	.st0{fill:#65939B;}
	.st1{fill:none;stroke:#8EB3BF;stroke-width:10;stroke-linecap:round;stroke-linejoin:round;stroke-miterlimit:10;}
	.st2{fill:#F77C72;}
	.st3{fill:#8AB5BC;}
	.st4{opacity:8.000000e-02;fill:#3A2512;enable-background:new    ;}
	.st5{fill:#F2A26D;}
	.st6{fill:#F4B990;}
	.st7{fill:#EAB28C;}
	.st8{fill:#CC6A4C;}
	.st9{fill:#DAEDF3;}
	.st10{fill:#C6DBE0;}
	.st11{fill:#543825;}
	.st12{fill:#D6E8ED;}
	.st13{opacity:0.22;fill:#4F4949;}
	.st14{fill:#B8D3DB;}
	.st15{fill:#7CAAB5;}
	.st16{fill:#C64C46;}
	.st17{fill:#BF251D;}
	.st18{fill:none;stroke:#7CAAB5;stroke-width:8;stroke-miterlimit:10;}
</style>
<g id="_x32_">
	<path class="st0" d="M245.3,119l-0.4-0.2c-0.3-0.1-0.4-0.4-0.3-0.7l14.6-37.5c0.1-0.3,0.4-0.4,0.7-0.3l0.4,0.2
		c0.3,0.1,0.4,0.4,0.3,0.7L246,118.7C245.9,119,245.6,119.1,245.3,119z"/>
	<path class="st0" d="M262.6,122.8l-0.4,0c-0.3,0-0.6-0.2-0.6-0.5l-2.9-40.2c0-0.3,0.2-0.6,0.5-0.6l0.4,0c0.3,0,0.6,0.2,0.6,0.5
		l2.9,40.2C263.1,122.5,262.9,122.8,262.6,122.8z"/>
	<path class="st0" d="M206,113.9l-0.1-0.3c-0.1-0.3,0-0.7,0.4-0.8l47.7-17.7c0.3-0.1,0.7,0,0.8,0.4l0.1,0.3c0.1,0.3,0,0.7-0.4,0.8
		l-47.7,17.7C206.5,114.4,206.1,114.2,206,113.9z"/>
	<path class="st0" d="M296.6,115l-0.2,0.4c-0.2,0.3-0.5,0.3-0.7,0.2l-34.3-21c-0.3-0.2-0.3-0.5-0.2-0.7l0.2-0.4
		c0.2-0.3,0.5-0.3,0.7-0.2l34.3,21C296.7,114.4,296.8,114.7,296.6,115z"/>
	<path class="st1" d="M430.3,238"/>
	<path class="st2" d="M29.8,412.4l452.3,1.2c15.2,0,26-14.3,21.5-28.5L469.4,278c-3-9.3-11.8-15.5-21.7-15.4l-368.9,5
		c-8.5,0.1-16.3,5-20,12.5L9.6,381C2.5,395.6,13.3,412.4,29.8,412.4z"/>
	<path class="st3" d="M67.8,383.2l373.7,0.8c12.5,0,21.5-9.2,17.8-18.4l-28.3-69c-2.4-6-9.8-10-18-9.9L104,289.9
		c-7.1,0.1-13.5,3.2-16.5,8.1l-36.5,65C45.2,372.3,54.1,383.2,67.8,383.2z"/>
	<g id="Nene">
		<path class="st4" d="M407.4,329.9c0,10.4-56.9,18.9-127,18.9c-50.8,0-93.9-7.3-114.9-10.9c-21.5-3.6-39.1-8.9-39.1-18.9
			c0-10.4,18.8-18.9,41.9-18.9c19.4,0,32.1,9.8,40.5,14.1c18.3,9.3,45.1-3.3,71.7-3.3C350.5,311,407.4,319.5,407.4,329.9z"/>
		<path class="st5" d="M211.6,233c0,0-0.7-14.1,8.7-17.6s15.5,8,11.5,19.4c-4.1,11.4-15.2,6-15.2,6L211.6,233z"/>
		<path class="st6" d="M186.4,306.6c0,0-12.4,6.5-3.4,14.6c5.7,2.8,16.6-3.2,17.7-11.8c0,0,20.8-3.5,35.3-36.4
			c14.6-32.8,13.4-58-12.4-58.6c0,0-55.6-27.8-84.1,10.4C110.4,263.8,144,296.1,186.4,306.6z"/>
		<path class="st7" d="M234.3,277.6c-0.2,0.6-0.5,1.1-0.7,1.7c-14.6,32.8-31.2,35.5-31.2,35.5c-1.2,5-10.5,10.8-16.7,8
			c-6.3-2.8-7.4-12-7.4-12c-42.4-10.5-65.4-34.5-43.9-78.2c0.2-0.4,1.4-2.7,3.2-2.6c-17.1,40.8,11.8,69.7,49.1,75.7
			C186.7,305.6,219.9,306.2,234.3,277.6z"/>
		<path class="st8" d="M220.4,252.3c0,0-5.4,5-1.1,6.9c4.3,1.9,7-1.8,7.8-3.4c1.3-2.9,0.9-7-2.6-8
			C220.9,246.9,220.4,252.3,220.4,252.3z"/>
		<path class="st9" d="M335.7,304.3c9.9,14.6-3.6,26.9-5.2,32.6c-1.5,5.1,69.2,15,70.9-34.2c1.8-49.2-14.5-56.6-28.1-62
			c-13.6-5.4-43,1.5-48.3,11.3C319.8,261.9,328.5,293.6,335.7,304.3z"/>
		<path class="st9" d="M401.5,302.7c-1.8,49.2-72.4,39.3-70.9,34.2c1.6-5.7,15.1-18,5.2-32.6c-1.9-2.8-3.9-7.1-5.7-12
			c-0.8-2.2-1.6-4.6-2.3-7c1.9,0.5,4.2,1.8,7,4.7c6.6,6.9,14.4,10.8,15.4,25.6c1,14.8,8.9,15.4,12.5,13.1
			c3.6-2.3,25.3-2.3,29.2-21.3c2.6-12.6,6.7-21.1,8.7-30.1C401.4,284.2,401.8,292.5,401.5,302.7z"/>
		<path class="st6" d="M289.1,175.8c2.3,2.3,6.9,10.1,8.7,10.1c0,0-7.4,63.2-2.1,75.4c6.4,14.7,23.8,58.5,77.4,40.6
			c4-1.3,7.8-9.5,7.9-14.2c0.5-15.4-0.9-35-47.5-45.8c0,0,2.5-13.8-2.7-31.7c-3.7-12.7-12.7-19.7-13.7-22.5c-1-2.8,2.1-14.9,1.1-20
			s-19.5-11.7-22.8-13.7c-3.3-2-17.6-7.1-19.5-4.3C271.7,156,276.2,162.7,289.1,175.8z"/>
		<path class="st9" d="M323.8,196.1C323.8,196.1,323.8,196.1,323.8,196.1c-7.8,3.9-16.2,5.4-27.1,4.1c-0.1,0-0.2,0-0.2,0v-0.1
			c0.8-8.4,1.5-14.3,1.5-14.3c-1.7,0-6.4-7.7-8.7-10.1c-12.9-13.1-17.4-19.8-13.2-26.1c1.9-2.8,16.2,2.4,19.5,4.3
			c3.3,1.9,24.7,10.5,25.7,15.5c1,5-5,15.3-4,18.1C317.9,189.1,320.7,191.9,323.8,196.1z"/>
		<path class="st10" d="M297.2,186.6c0,0,2.3-1.2,3-1.6c1-0.7,3.3-2.3,3.9-3.3c2.8-4.3,4.9-8.5,5.6-10.8c0.7-2.5,2.6-8.9,2-9.2
			c-0.7-0.3-3.6-2-3.6-2l-9.5,19L297.2,186.6z"/>
		<path class="st6" d="M339.7,315.3c0.8,5.9-8.8,21.6-8.8,21.6s-90.4,18-105-24.9c-14.6-43,9.8-67.2,37-102c4-5.2,19-25.3,17.8-26.8
			c-3.6-4.8-6.1-16.4-5.6-20.2c0.6-4.6,1.3-3.1,4.6,1.9c0.7,1,3.1,3.6,3.9,1.6c0.5-1.3,5.9-15.7,7.5-15.7c2.9,0,4.7,1.4,6.5,2.2
			c3.9,1.8,9.7,6.4,11,7c3.4,1.6-3.9,17.4-4.7,19.2c-2,4.5-6.2,4.5-7.4,10c-1.3,6.4-5.4,27.5-10.3,40.9
			c-2.8,7.6-15.8,29.8-16.1,30.2c0.2-0.2,13.4-3.1,25.6,0.2c0,0,5.8,16.2,15.5,27.5c11.8,13.7,25.7,16.7,25.7,16.7
			C338.1,307.5,339.1,311,339.7,315.3z"/>
		<path class="st7" d="M225.8,311.7c0.8,2.7,2,5.1,3.4,7.4c-2.1-2.7-4-5.8-5-9.3c-12.5-47,20.9-77.5,20.9-77.5
			S213.6,272.2,225.8,311.7z"/>
		<path class="st7" d="M329.4,302.4c2.6,1,4.6,2,7.3,2.2c-27.6-9.4-41.6-44.9-41.6-44.9S295.9,289.3,329.4,302.4z"/>
		<path class="st7" d="M330.5,336.9c0,0-90.4,18-105-24.9c-3.4-10-4.7-18.9-4.3-27.3c0.3,6.8,1.7,14,4.3,21.8
			c14.6,43,105,24.9,105,24.9s6.8-11.2,8.5-18.3c0.1,0.7,0.2,1.4,0.3,2.1C340.1,321.2,330.5,336.9,330.5,336.9z"/>
		<polygon class="st7" points="269.7,260.2 262.7,283.1 276.6,259.2 		"/>
		<path class="st11" d="M213,217.5c0.6,0.2,1.1,0.5,1.5,1c-3.1,0-6.2,2.7-7.6,6.7c-0.8,2.4-0.8,4.8-0.1,6.8
			c-1.9-1.5-2.6-5.1-1.4-8.6C206.9,219.2,210.2,216.6,213,217.5z"/>
		<path class="st11" d="M197.9,246.1c0.6,0.1,1.2,0.4,1.6,0.8c-3,0.4-5.8,3.5-6.7,7.6c-0.5,2.5-0.2,4.9,0.7,6.7
			c-2.1-1.3-3.2-4.7-2.4-8.4C192,248.5,195,245.5,197.9,246.1z"/>
		<path class="st10" d="M401.5,302.7c-1.8,49.2-72.4,39.3-70.9,34.2c1.6-5.5,14-17.9,5.8-31.6c-0.2-0.3-1-1.1-0.6-1
			c0.2,0,12.4,1.4,12.3,1.8c-0.7,2.5-1.3,11.1-0.7,14.3c2.9,14.5,20.8,11.2,24.9,10.2c5.2-1.3,17.4-3.9,21.3-23
			c2.6-12.6,4.7-21.4,6.7-30.4C401.4,284.2,401.8,292.5,401.5,302.7z"/>
		<path class="st12" d="M329.7,206.3c-0.1,0.2-0.3,0.5-0.4,0.6c-1.3,1.3-29.1,6.6-33.6,4.1c-0.1,0-0.1-0.1-0.1-0.1
			c-3.1-2.1-1.8-10.7,1.1-10.8c0.1,0,0.2,0,0.2,0c10.8,1.4,19.3-0.2,27-4.1c0,0,0,0,0,0C326.4,194.9,331.2,203,329.7,206.3z"/>
	</g>
	<circle class="st13" cx="31.3" cy="385.8" r="11.4"/>
	<circle class="st13" cx="88.6" cy="283.1" r="11.4"/>
	<circle class="st13" cx="443.2" cy="283.1" r="11.4"/>
	<circle class="st13" cx="480.7" cy="386.1" r="11.4"/>
	<path class="st14" d="M245.2,94.1c0,1.1,0.3,2.2,0.9,3.1c-8.5,0.5-17.3,1.3-26.5,2.5c-14,2.3-27.1,6-39.5,11.1
		c-55.4,22.6-75.8,47-81.2,96.8c-1.9,17.9-1.5,73.5-1.5,74.1c0,5.6-4.5,10.2-10.1,10.2h-0.1c-5.6,0-10.1-4.5-10.1-10.1
		c0-2.3-0.4-57.3,1.6-76.4c3.5-32.8,13.3-56.9,32.7-76.2c-44.7,24.5-72.4,65.2-72.4,110.4v145.3c0,5.6-4.5,10.1-10.1,10.1
		s-10.1-4.5-10.1-10.1V239.6c0-69,54.1-128.4,134.7-148c22.4-5.4,43.4-9.4,63.1-11.9c9.4-1.6,19-2.6,29.1-3
		c-0.4,0.8-0.6,1.7-0.6,2.6V94.1z"/>
	<path class="st14" d="M490.5,239.6v145.3c0,5.6-4.5,10.1-10.1,10.1s-10.1-4.5-10.1-10.1V239.6c0-34.3-15-66-40.6-90
		c10.3,17.6,15,36.6,17.9,55.4c2.9,18.9,6.2,73.9,6.4,76.2c0.3,5.6-3.9,10.4-9.5,10.7c-5.6,0.4-10.4-3.9-10.7-9.5
		c0-0.6-3.4-56.4-6.2-74.3c-6.7-43.6-22.4-75.1-79.7-97.2c-7-2.7-14.2-5-21.6-6.9c-19.5-3.8-37.7-6.2-54.7-7
		c0.5-0.9,0.7-1.9,0.7-2.9V79.2c0-1-0.2-1.9-0.7-2.8c21.2,0.4,40.9,3,59.3,7.8c10.4,2.1,21.2,4.5,32.3,7.4
		C439.3,111.3,490.5,170.7,490.5,239.6z"/>
	<path class="st15" d="M401.7,179.8h-0.3c-0.3,0-0.6-0.3-0.6-0.6v-50.8c0-0.3,0.3-0.6,0.6-0.6h0.3c0.3,0,0.6,0.3,0.6,0.6v50.8
		C402.3,179.5,402,179.8,401.7,179.8z"/>
	<path class="st0" d="M181,102.3c0,0-32.4,4-49,13.3c0,0,0.5,3.7,1.1,3.4C151.1,110.3,181,102.3,181,102.3z"/>
	<path class="st0" d="M347,101.8c0,0,31.9,7.1,47.5,18.1c0,0-0.8,3.7-1.4,3.3C376,112.6,347,101.8,347,101.8z"/>
	<path class="st15" d="M272.2,79.2v14.9c0,1.1-0.3,2-0.7,2.9c-3.4-0.2-6.8-0.3-10.2-0.3c-5,0.1-10,0.2-15.2,0.5
		c-0.6-0.9-0.9-2-0.9-3.1V79.2c0-0.9,0.2-1.8,0.6-2.6c1-2.1,3.1-3.5,5.5-3.5h14.9c2.4,0,4.4,1.4,5.4,3.3
		C272,77.3,272.2,78.2,272.2,79.2z"/>
	<path class="st0" d="M271.5,97c-1,1.9-3,3.2-5.3,3.2h-14.9c-2.2,0-4.1-1.2-5.2-2.9c5.2-0.3,10.2-0.5,15.2-0.5
		C264.6,96.7,268,96.8,271.5,97z"/>
	<path class="st15" d="M422.8,119.4l-1.7,3l-5.7,9.9c-1.7,2.9-5.4,3.9-8.3,2.2l-12.9-7.4c-2.9-1.7-3.9-5.4-2.2-8.3l0.5-0.8l6.9-12
		c1.7-2.9,5.4-3.9,8.3-2.2l12.9,7.4C423.5,112.8,424.5,116.5,422.8,119.4z"/>
	<path class="st0" d="M485.4,202.1l-14.5,7c-2.7,1.3-6,0.2-7.3-2.5l-0.1-0.3l-4.4-9.1c-1.3-2.7-0.2-6,2.5-7.3l14.5-7
		c2.7-1.3,6-0.2,7.3,2.5l4.2,8.7l0.4,0.7C489.2,197.5,488.1,200.8,485.4,202.1z"/>
	<path class="st15" d="M444.5,180.1l-25.8,6.4l-2.1-8.7c-0.7-2.8,1-5.7,3.9-6.3l15.7-3.8c2.8-0.7,5.7,1,6.3,3.9L444.5,180.1z"/>
	<path class="st15" d="M134.2,116.5c-2.1,4.5-13.4,9.2-18.8,8.9c-2.5-0.2-6.9-3.3-10.8-6.7l-1.9-3.3c-1.7-2.9-0.7-6.6,2.2-8.3
		l12.9-7.4c2.9-1.7,6.6-0.7,8.3,2.2l7.4,12.9C133.9,115.3,134.1,115.9,134.2,116.5z"/>
	<path class="st15" d="M45.7,206.5l4.5-9.4c1.3-2.7,0.2-6-2.5-7.3l-14.5-7c-2.7-1.3-6-0.2-7.3,2.5l-4.5,9.4c-1.3,2.7-0.2,6,2.5,7.3
		l14.5,7C41.2,210.4,44.4,209.3,45.7,206.5z"/>
	<path class="st0" d="M45.4,207.1c-1.5,2.3-4.4,3.2-6.9,1.9l-14.5-7c-2.7-1.3-3.8-4.6-2.5-7.3l0.2-0.4L45.4,207.1z"/>
	<path class="st0" d="M106.4,187.8c-0.9,2.5-3.5,4-6.2,3.3l-15.6-3.8c-2.8-0.7-4.6-3.5-3.9-6.3l0.1-0.3L106.4,187.8z"/>
	<path class="st15" d="M108.9,177.8l-2.3,9.5c0,0.2-0.1,0.4-0.2,0.6l-25.6-7.2l2.2-9.2c0.7-2.8,3.5-4.6,6.3-3.9l15.7,3.8
		C107.8,172.1,109.6,174.9,108.9,177.8z"/>
	<path class="st2" d="M220.1,151.1c0,8.3-6.7,15-14.9,15.2c4.4-3.1,7.3-8.8,7.3-15.2c0-6.4-2.9-12.1-7.3-15.2
		C213.4,136,220.1,142.7,220.1,151.1z"/>
	<path class="st2" d="M258.4,138.7h0.3c0,0-0.1,0.1-0.1,0.1C258.5,138.8,258.5,138.8,258.4,138.7z"/>
	<path class="st2" d="M257.2,134.2h-0.5c0.1-0.1,0.2-0.1,0.3-0.2C257,134.1,257.1,134.2,257.2,134.2z"/>
	<path class="st16" d="M212.5,151.1c0,6.4-2.9,12.1-7.3,15.2h-0.5c-4.4-3.1-7.3-8.8-7.3-15.2c0-6.4,2.9-12.1,7.3-15.2h0.5
		C209.6,139,212.5,144.6,212.5,151.1z"/>
	<path class="st17" d="M204.6,166.3c-8.3-0.2-14.9-6.9-14.9-15.2c0-8.3,6.7-15,14.9-15.2c-4.4,3.1-7.3,8.8-7.3,15.2
		C197.3,157.5,200.2,163.1,204.6,166.3z"/>
	<path class="st2" d="M260.6,178.9c0,8.3-6.7,15-14.9,15.2c4.4-3.1,7.3-8.8,7.3-15.2c0-6.4-2.9-12.1-7.3-15.2
		C253.9,163.9,260.6,170.6,260.6,178.9z"/>
	<path class="st16" d="M253,178.9c0,6.4-2.9,12.1-7.3,15.2h-0.5c-4.4-3.1-7.3-8.8-7.3-15.2c0-6.4,2.9-12.1,7.3-15.2h0.5
		C250.1,166.8,253,172.5,253,178.9z"/>
	<path class="st17" d="M245.2,194.1c-8.3-0.2-14.9-6.9-14.9-15.2c0-8.3,6.7-15,14.9-15.2c-4.4,3.1-7.3,8.8-7.3,15.2
		C237.8,185.4,240.8,191,245.2,194.1z"/>
	<path class="st2" d="M258.4,138.7h0.3c0,0-0.1,0.1-0.1,0.1C258.5,138.8,258.5,138.8,258.4,138.7z"/>
	<path class="st2" d="M264.3,144.4h0.3c-0.1,0-0.1,0.1-0.2,0.1C264.4,144.5,264.4,144.4,264.3,144.4z"/>
	<path class="st2" d="M273.3,148.9c0,5.5-4.5,10-10,10.1c2.9-2.1,4.9-5.8,4.9-10.1c0-4.3-2-8.1-4.9-10.1
		C268.8,138.9,273.3,143.4,273.3,148.9z"/>
	<path class="st16" d="M268.2,148.9c0,4.3-2,8.1-4.9,10.1H263c-2.9-2.1-4.9-5.8-4.9-10.1c0-4.3,2-8.1,4.9-10.1h0.3
		C266.3,140.9,268.2,144.6,268.2,148.9z"/>
	<path class="st17" d="M263,159c-5.5-0.1-10-4.6-10-10.1s4.5-10,10-10.1c-2.9,2.1-4.9,5.8-4.9,10.1C258.1,153.2,260.1,157,263,159z"
		/>
	<path class="st2" d="M264.3,144.4h0.3c-0.1,0-0.1,0.1-0.2,0.1C264.4,144.5,264.4,144.4,264.3,144.4z"/>
	<path class="st2" d="M304.8,144.4h0.5c-0.1,0.1-0.2,0.1-0.3,0.2C304.9,144.5,304.9,144.4,304.8,144.4z"/>
	<path class="st2" d="M321.6,153.9c0,8.3-6.7,15-14.9,15.2c4.4-3.1,7.3-8.8,7.3-15.2c0-6.4-2.9-12.1-7.3-15.2
		C314.9,138.8,321.6,145.6,321.6,153.9z"/>
	<path class="st16" d="M314,153.9c0,6.4-2.9,12.1-7.3,15.2h-0.5c-4.4-3.1-7.3-8.8-7.3-15.2c0-6.4,2.9-12.1,7.3-15.2h0.5
		C311,141.8,314,147.4,314,153.9z"/>
	<path class="st17" d="M306.1,169.1c-8.3-0.2-14.9-6.9-14.9-15.2c0-8.3,6.7-15,14.9-15.2c-4.4,3.1-7.3,8.8-7.3,15.2
		C298.8,160.3,301.7,165.9,306.1,169.1z"/>
	<path class="st2" d="M304.8,144.4h0.5c-0.1,0.1-0.2,0.1-0.3,0.2C304.9,144.5,304.9,144.4,304.8,144.4z"/>
	<path class="st2" d="M257.2,134.2h-0.5c0.1-0.1,0.2-0.1,0.3-0.2C257,134.1,257.1,134.2,257.2,134.2z"/>
	<ellipse class="st2" cx="256.9" cy="116.5" rx="58.3" ry="8.9"/>
	<path class="st15" d="M245.7,164.7h-0.3c-0.3,0-0.6-0.3-0.6-0.6v-50.8c0-0.3,0.3-0.6,0.6-0.6h0.3c0.3,0,0.6,0.3,0.6,0.6V164
		C246.3,164.4,246,164.7,245.7,164.7z"/>
	<path class="st15" d="M118.1,176.9h-0.3c-0.3,0-0.6-0.3-0.6-0.6v-50.8c0-0.3,0.3-0.6,0.6-0.6h0.3c0.3,0,0.6,0.3,0.6,0.6v50.8
		C118.7,176.6,118.4,176.9,118.1,176.9z"/>
	<path class="st15" d="M306.3,139.3L306.3,139.3c-0.3,0-0.5-0.2-0.5-0.5V117c0-0.3,0.2-0.5,0.5-0.5l0,0c0.3,0,0.5,0.2,0.5,0.5v21.7
		C306.8,139.1,306.6,139.3,306.3,139.3z"/>
	<path class="st15" d="M263.4,139.3h-0.2c-0.3,0-0.5-0.2-0.5-0.5v-16.7c0-0.3,0.2-0.5,0.5-0.5h0.2c0.3,0,0.5,0.2,0.5,0.5v16.7
		C263.9,139.1,263.6,139.3,263.4,139.3z"/>
	<path class="st15" d="M205,136.8L205,136.8c-0.3,0-0.6-0.2-0.6-0.5v-19.4c0-0.3,0.2-0.5,0.5-0.5h0.1c0.3,0,0.5,0.2,0.5,0.5v19.4
		C205.5,136.6,205.3,136.8,205,136.8z"/>
	<ellipse class="st18" cx="257.2" cy="116.4" rx="55.5" ry="5.7"/>
	<path class="st0" d="M131.3,123l-12.9,7.4c-2.9,1.7-6.6,0.7-8.3-2.2l-5.5-9.5c4,3.4,8.3,6.5,10.8,6.7c5.4,0.4,16.7-4.4,18.8-8.9
		C134.8,119,133.7,121.7,131.3,123z"/>
	<path class="st0" d="M421,122.4l-5.7,9.9c-1.7,2.9-5.4,3.9-8.3,2.2l-12.9-7.4c-2.9-1.7-3.9-5.4-2.2-8.3l0.5-0.8
		c3.1,3,8.3,7.2,13.8,7.5C410.7,125.6,416.4,124,421,122.4z"/>
	<path class="st0" d="M440.9,187.4l-15.7,3.8c-2.5,0.6-5.1-0.7-6.1-3.1c-0.1-0.3-0.2-0.5-0.3-0.8l-0.2-0.8l25.8-6.4l0.2,1
		C445.5,183.8,443.7,186.7,440.9,187.4z"/>
	<path class="st15" d="M487.5,194.1c-4.2,3.4-12.6,9.2-24.1,12.2l-4.4-9.1c-1.3-2.7-0.2-6,2.5-7.3l14.5-7c2.7-1.3,6-0.2,7.3,2.5
		L487.5,194.1z"/>
	<circle class="st16" cx="118" cy="174.8" r="8.3"/>
	<circle class="st16" cx="118" cy="156.7" r="4.3"/>
	<circle class="st16" cx="118" cy="140.2" r="5.8"/>
	<circle class="st16" cx="401.6" cy="177.6" r="8.3"/>
	<circle class="st16" cx="401.6" cy="159.6" r="4.3"/>
	<circle class="st16" cx="401.6" cy="143.1" r="5.8"/>
</g>
</svg>
