<?xml version="1.0" encoding="utf-8"?>
<!-- Generator: Adobe Illustrator 22.0.1, SVG Export Plug-In . SVG Version: 6.00 Build 0)  -->
<svg version="1.1" id="Layer_1" xmlns="http://www.w3.org/2000/svg" xmlns:xlink="http://www.w3.org/1999/xlink" x="0px" y="0px"
	 viewBox="0 0 512 512" style="enable-background:new 0 0 512 512;" xml:space="preserve">
<style type="text/css">
	.st0{opacity:4.000000e-02;fill:#3A2512;enable-background:new    ;}
	.st1{fill:#96B5DF;}
	.st2{fill:#8AB5BC;}
	.st3{fill:#7CAAB5;}
	.st4{fill:#EA9C7A;}
	.st5{fill:#F4B990;}
	.st6{fill:#543825;}
	.st7{fill:#86C7DE;}
	.st8{fill:#509FCC;}
	.st9{fill:#8EB3BF;}
	.st10{fill:#E18E24;}
	.st11{fill:#6B67A3;}
	.st12{fill:#EACB13;}
	.st13{fill:#BBD7E2;}
</style>
<g id="_x31_">
	<path id="SombraSuelo" class="st0" d="M406.4,425.3c0-21.5-75.5-39.1-168.8-39.1c-22.4,0-43.9,9.4-63.6,10.9
		c-6.9,0.6-96.2-57.3-105.2,28.2c-5.6,53.3,89.1,26.6,95,27c22.4,1.9,47.3,11.9,73.8,11.9C330.9,464.4,406.4,447,406.4,425.3z"/>
	<path class="st1" d="M182.3,361.1c0,0,18.8,38.3,35.6,42.7c0,0,47.7,58.4,113.6,45.8c0,0,67.3,14.9,106.2-53.7
		c27.4-48.3-44.1-97.5-54.6-102.9c-32.8-16.3-54.8,0.4-54.8,0.4s-20.9-28.2-59.8-14.9C234.6,290,182.3,361.1,182.3,361.1z"/>
	<path class="st2" d="M199.3,349.2c0,0,18.8,38.3,35.6,42.7c0,0,47.7,58.4,113.6,45.8c0,0,67.3,14.9,106.2-53.7
		c27.4-48.3-44.1-97.5-54.6-102.9c-32.8-16.3-54.8,0.4-54.8,0.4s-20.9-28.2-59.8-14.9C251.8,278.2,199.3,349.2,199.3,349.2z"/>
	<path class="st3" d="M414.7,425.3c-37.7,34.5-83.2,24.5-83.2,24.5C265.6,462.5,217.9,404,217.9,404c-16.9-4.6-35.6-42.7-35.6-42.7
		s45.2-68.8,78.9-80.1c10.2-3.4,19.7,7.7,3.6,30.5c-20.5,29.1-47.7,50.4-47.7,50.4s12.3,21.1,22.4,26.8c0,0,47.7,58.4,113.6,45.8
		C353,434.7,383.1,441.2,414.7,425.3z"/>
	<path class="st4" d="M224.8,248.3c-6.7-5.7-7.7-29.9,14.9-30.8c12.8-0.6,15.5,10,14.2,20.5c-1.1,9.2-10.3,15.3-19.4,13
		C234.6,250.9,226.5,249.6,224.8,248.3z"/>
	<path class="st5" d="M162.5,381.4c0,0,49.4-1.9,86.4-69.7s-14-68.8-14-68.8s-46.8-59-91.6-44.1S65.9,268.8,64.8,295
		c-1.3,26.3,33,65.3,58.6,76.8c0,0-16.7,28.4,10.7,32.2C149.3,406,162.5,381.4,162.5,381.4z"/>
	<path class="st3" d="M236.7,387.6c0,0,91.4-72.8,102.5-96C339.2,291.6,299.5,350.4,236.7,387.6z"/>
	<path class="st3" d="M283.6,416.9c0,0,55.6-61.5,68.6-121.5C352.2,295.4,340.3,372.4,283.6,416.9z"/>
	<path class="st3" d="M306.2,424.9c0,0,68-19,113.8-95.6C420,329.3,390,401.7,306.2,424.9z"/>
	<path class="st3" d="M357,431.4c0,0,71.9-49.8,79.3-84.7C436.5,346.7,426.6,394.8,357,431.4z"/>
	<path id="Ojo2" class="st6" d="M227.9,256.1c0,0,6.5,24.1-17.8,22.6C210,278.9,228.1,277.8,227.9,256.1z"/>
	<path id="Ojo1" class="st6" d="M174.6,323.8c0,0,6.5,24.1-17.8,22.6C156.8,346.4,174.8,345.2,174.6,323.8z"/>
	<g id="Chupete">
		<circle class="st7" cx="225.9" cy="316.3" r="19.7"/>
		<path class="st8" d="M220.2,310.3c-3.6,4-3.4,10.3,0.6,14c2.3,2.1,5.6,2.9,8.4,2.5c1,3.1,2.9,5.7,5.4,8c7.9,7.3,20.3,6.7,27.6-1.3
			c7.3-8,6.7-20.3-1.3-27.6c-8-7.3-20.3-6.7-27.6,1.3c-0.4,0.4-0.6,0.8-1,1.1C228.4,306.1,223.3,306.9,220.2,310.3z M256,311.1
			c5.2,4.6,5.6,12.6,0.8,17.8c-4.6,5.2-12.6,5.6-17.8,0.8c-1.9-1.7-3.3-4.2-3.8-6.5c2.1-2.7,2.7-6.3,1.5-9.4c0.4-0.6,1-1.3,1.3-1.9
			C243,306.9,250.9,306.5,256,311.1z"/>
	</g>
	<g id="Gorro">
		<path class="st2" d="M210.2,208.3c0,0-118.4,22.9-114.3,151.7c0,0-20.6-12-29.1-22.9c-37.4-47.8-8.3-147.5,83.1-149.6
			C168.8,187.1,207.3,200.9,210.2,208.3"/>
		<path class="st3" d="M216.5,212.4l-2.6,9l-6.2-5c0,0-24.4,5-58.9,49.1c-34.3,43.9-42.6,95.5-42.6,95.5l8.1,6.1
			c0,0-7.7,3.2-7.9,3.3c-1.7,0.6-7.4,0.6-12.5-4.2c-7.6-7.1,2.1-141.3,114.3-160C208.2,206.2,214.4,206.2,216.5,212.4"/>
		<line class="st2" x1="206.2" y1="215.4" x2="212" y2="219.5"/>
		<path class="st3" d="M62.5,263.6c0,0-17.2,53.7,30.6,89.4C93.1,353,56.7,317.2,62.5,263.6z"/>
		<path class="st3" d="M79,238.7c0,0-8.2,43.4,27.1,69.2C106.1,307.9,79.4,275.4,79,238.7z"/>
		<path class="st3" d="M92.2,224.5c0,0,35.4-12.5,62.5,9C154.7,233.5,123.3,219.2,92.2,224.5z"/>
		<path class="st3" d="M104.7,209.9c0,0,49.8-38.3,95.2,3.7C199.8,213.6,156.4,185,104.7,209.9z"/>
	</g>
	<g id="Accesorio">
		<g>
			<path class="st9" d="M244.8,111.5h-0.2c-0.4,0-0.8-0.4-0.8-0.8V84.2c0-0.4,0.4-0.8,0.8-0.8h0.2c0.4,0,0.8,0.4,0.8,0.8v26.4
				C245.6,111.1,245.2,111.5,244.8,111.5z"/>
			<path class="st9" d="M244.8,77h-0.2c-0.4,0-0.8-0.4-0.8-0.8V49.8c0-0.4,0.4-0.8,0.8-0.8h0.2c0.4,0,0.8,0.4,0.8,0.8v26.4
				C245.6,76.6,245.2,77,244.8,77z"/>
			<path class="st9" d="M371.5,99.3h-0.7c-0.3,0-0.5-0.2-0.5-0.5V87.2c0-0.3,0.2-0.5,0.5-0.5h0.7c0.3,0,0.5,0.2,0.5,0.5v11.5
				C372,99,371.7,99.3,371.5,99.3z"/>
			<path class="st9" d="M371.3,80.2h-0.5c-0.3,0-0.6-0.3-0.6-0.6v-17c0-0.3,0.3-0.6,0.6-0.6h0.5c0.3,0,0.6,0.3,0.6,0.6v17
				C372,79.9,371.7,80.2,371.3,80.2z"/>
			<path class="st9" d="M371.3,49h-0.5c-0.3,0-0.6-0.3-0.6-0.6v-17c0-0.3,0.3-0.6,0.6-0.6h0.5c0.3,0,0.6,0.3,0.6,0.6v17
				C372,48.7,371.7,49,371.3,49z"/>
			<path class="st9" d="M244.9,46.5h-0.5c-0.3,0-0.6-0.3-0.6-0.6v-17c0-0.3,0.3-0.6,0.6-0.6h0.5c0.3,0,0.6,0.3,0.6,0.6v17
				C245.6,46.2,245.3,46.5,244.9,46.5z"/>
			<path class="st9" d="M300,133L300,133c-0.5,0-0.9-0.4-0.9-0.9V95.5c0-0.5,0.4-0.9,0.9-0.9l0,0c0.5,0,0.9,0.4,0.9,0.9v36.6
				C300.9,132.6,300.5,133,300,133z"/>
			<path class="st9" d="M300.1,90.6h-0.2c-0.4,0-0.8-0.4-0.8-0.8V63.4c0-0.4,0.4-0.8,0.8-0.8h0.2c0.4,0,0.8,0.4,0.8,0.8v26.4
				C300.9,90.3,300.5,90.6,300.1,90.6z"/>
			<path class="st9" d="M300.1,164.6h-0.2c-0.4,0-0.8-0.4-0.8-0.8v-26.4c0-0.4,0.4-0.8,0.8-0.8h0.2c0.4,0,0.8,0.4,0.8,0.8v26.4
				C300.9,164.3,300.5,164.6,300.1,164.6z"/>
			<path class="st9" d="M410.6,139.8L410.6,139.8c-0.5,0-0.9-0.4-0.9-0.9v-36.6c0-0.5,0.4-0.9,0.9-0.9l0,0c0.5,0,0.9,0.4,0.9,0.9
				v36.6C411.5,139.4,411.1,139.8,410.6,139.8z"/>
			<path class="st9" d="M410.6,97.5L410.6,97.5c-0.5,0-0.9-0.4-0.9-0.9V56.7c0-0.5,0.4-0.9,0.9-0.9l0,0c0.5,0,0.9,0.4,0.9,0.9v39.9
				C411.5,97.1,411.1,97.5,410.6,97.5z"/>
			<path class="st9" d="M410.7,171.4h-0.2c-0.4,0-0.8-0.4-0.8-0.8v-26.4c0-0.4,0.4-0.8,0.8-0.8h0.2c0.4,0,0.8,0.4,0.8,0.8v26.4
				C411.5,171.1,411.1,171.4,410.7,171.4z"/>
		</g>
		<path class="st10" d="M248,101.9l5.1,15.8c0.1,0.3,0.3,0.4,0.6,0.4h16.6c3.2,0,4.6,4.2,2,6.1l-13.4,9.7c-0.2,0.2-0.3,0.4-0.2,0.7
			l5.1,15.8c1,3.1-2.5,5.7-5.2,3.7l-13.4-9.7c-0.2-0.2-0.5-0.2-0.7,0l-13.4,9.7c-2.6,1.9-6.2-0.7-5.2-3.7l5.1-15.8
			c0.1-0.3,0-0.5-0.2-0.7l-13.4-9.7c-2.6-1.9-1.3-6.1,2-6.1h16.6c0.3,0,0.5-0.2,0.6-0.4l5.1-15.8C242.6,98.8,247,98.8,248,101.9z"/>
		<g>
			<path class="st10" d="M443.4,32.5c0.1,0.3,0.3,0.5,0.4,0.8l0,0L443.4,32.5z M218,27.3L218,27.3c0.2-0.2,0.4-0.3,0.7-0.5L218,27.3
				z"/>
		</g>
		<g>
			<path class="st11" d="M220.5,27.8C220.5,27.8,220.5,27.8,220.5,27.8c0.1,0.1,0.1,0.1,0.2,0.2C220.6,27.9,220.5,27.8,220.5,27.8z
				 M224.6,31.2c0.3,0.2,0.6,0.4,1,0.6C225.2,31.6,224.9,31.4,224.6,31.2z M230.3,34.1c0.4,0.2,0.9,0.4,1.4,0.6
				C231.2,34.5,230.7,34.3,230.3,34.1z M443,31.7L443,31.7c0.1,0.2,0.2,0.5,0.4,0.7L443,31.7z M230.3,34.1c0.4,0.2,0.9,0.4,1.4,0.6
				C231.2,34.5,230.7,34.3,230.3,34.1z M224.6,31.2c0.3,0.2,0.6,0.4,1,0.6C225.2,31.6,224.9,31.4,224.6,31.2z M220.5,27.8
				C220.5,27.8,220.5,27.8,220.5,27.8c0.1,0.1,0.1,0.1,0.2,0.2C220.6,27.9,220.5,27.8,220.5,27.8z M219.5,26.2l-0.8,0.6
				C218.9,26.6,219.2,26.4,219.5,26.2L219.5,26.2z"/>
			<path class="st11" d="M445.1,39.9L445.1,39.9c0,1.7-0.8,3.3-2.1,5c-5,5.7-19.2,10.9-40,14.6c-20.9,3.7-47.5,5.8-74.9,5.8
				c-50.1,0-94.6-6.7-110.6-16.6c-4.5-2.8-6.6-5.8-6.3-8.8c0.4-4.9,2.8-9.1,6.9-12.5c0.2-0.2,0.4-0.3,0.7-0.5
				c0.3-0.2,0.5-0.4,0.8-0.6l0.5,0.8c0.1,0.2,0.3,0.5,0.5,0.7c0,0,0,0,0,0c0.1,0.1,0.1,0.1,0.2,0.2c0.1,0.1,0.2,0.2,0.3,0.3
				c0.1,0.1,0.2,0.2,0.3,0.3c0.1,0.1,0.2,0.2,0.3,0.3c0.2,0.2,0.4,0.4,0.7,0.6c0.2,0.2,0.5,0.4,0.7,0.6c0.1,0.1,0.3,0.2,0.4,0.3
				c0.1,0.1,0.3,0.2,0.4,0.3c0.1,0.1,0.2,0.1,0.3,0.2c0.2,0.1,0.4,0.3,0.6,0.4c0.3,0.2,0.6,0.4,1,0.6c0,0,0,0,0,0
				c0.2,0.1,0.3,0.2,0.5,0.3c0.4,0.2,0.7,0.4,1.1,0.6c0.4,0.2,0.8,0.4,1.2,0.6c0.2,0.1,0.4,0.2,0.6,0.3c0.2,0.1,0.4,0.2,0.6,0.3
				c0.2,0.1,0.4,0.2,0.7,0.3c0.4,0.2,0.9,0.4,1.4,0.6c0.5,0.2,0.9,0.4,1.4,0.6c0.9,0.3,1.8,0.7,2.8,1h0c0.1,0,0.2,0.1,0.3,0.1
				c0.9,0.3,1.9,0.6,2.9,0.9c21.6,6.5,57.6,10.4,95.3,10.4c36.5,0,70.8-3.6,92.6-9.8c1-0.3,2-0.6,2.9-0.8c0.1,0,0.2-0.1,0.3-0.1h0
				c0.2-0.1,0.4-0.1,0.7-0.2c0.9-0.3,1.7-0.6,2.6-0.9c0.3-0.1,0.5-0.2,0.8-0.3s0.5-0.2,0.7-0.3s0.5-0.2,0.7-0.3
				c0.2-0.1,0.5-0.2,0.7-0.3c0.5-0.2,0.9-0.4,1.4-0.6c0.4-0.2,0.9-0.4,1.3-0.6c0.6-0.3,1.2-0.6,1.8-0.9c0.2-0.1,0.4-0.2,0.6-0.3
				c0,0,0,0,0,0c0.3-0.1,0.5-0.3,0.8-0.4l0.8-0.4c0.1,0.2,0.3,0.4,0.4,0.7c0,0,0,0.1,0.1,0.1c0.1,0.3,0.3,0.5,0.4,0.8
				C444.7,35.3,445.1,37.5,445.1,39.9z"/>
		</g>
		<g>
			<g>
				<path class="st9" d="M443.4,32.5c0.1,0.3,0.3,0.5,0.4,0.8l0,0L443.4,32.5z M218,27.3L218,27.3c0.2-0.2,0.4-0.3,0.7-0.5L218,27.3
					z"/>
				<path class="st9" d="M251.7,34.9c-4.6,0.6-8.8,1.4-12.6,2.3c-1-0.3-2-0.6-2.9-0.9c-0.1,0-0.2-0.1-0.3-0.1h0
					c-1-0.3-1.9-0.7-2.8-1c-0.5-0.2-1-0.4-1.4-0.6c-0.5-0.2-0.9-0.4-1.4-0.6c-0.2-0.1-0.5-0.2-0.7-0.3c-0.2-0.1-0.4-0.2-0.6-0.3
					c-0.2-0.1-0.4-0.2-0.6-0.3c-0.4-0.2-0.8-0.4-1.2-0.6c-0.4-0.2-0.7-0.4-1.1-0.6c-0.2-0.1-0.3-0.2-0.5-0.3c0,0,0,0,0,0
					c-0.3-0.2-0.7-0.4-1-0.6c-0.2-0.1-0.4-0.3-0.6-0.4c-0.1-0.1-0.2-0.1-0.3-0.2c-0.1-0.1-0.3-0.2-0.4-0.3c-0.1-0.1-0.3-0.2-0.4-0.3
					c-0.3-0.2-0.5-0.4-0.7-0.6c-0.2-0.2-0.5-0.4-0.7-0.6c-0.1-0.1-0.2-0.2-0.3-0.3c-0.1-0.1-0.2-0.2-0.3-0.3
					c-0.1-0.1-0.2-0.2-0.3-0.3c-0.1-0.1-0.1-0.1-0.2-0.2c-0.2-0.2-0.3-0.5-0.5-0.7l-0.5-0.8c5.1-3.5,12.3-6,21.3-7.7
					C242.6,25.2,246.4,30.9,251.7,34.9z"/>
				<path class="st9" d="M442.9,31.7l-0.8,0.4c-0.3,0.1-0.5,0.3-0.8,0.4c0,0,0,0,0,0c-0.2,0.1-0.4,0.2-0.6,0.3
					c-0.6,0.3-1.2,0.6-1.8,0.9c-0.4,0.2-0.9,0.4-1.3,0.6c-0.4,0.2-0.9,0.4-1.4,0.6c-0.2,0.1-0.5,0.2-0.7,0.3
					c-0.2,0.1-0.5,0.2-0.7,0.3s-0.5,0.2-0.7,0.3s-0.5,0.2-0.8,0.3c-0.8,0.3-1.7,0.6-2.6,0.9c-0.2,0.1-0.4,0.1-0.7,0.2h0
					c-0.1,0-0.2,0.1-0.3,0.1c-0.9,0.3-1.9,0.6-2.9,0.8c-3.7-1-7.9-1.9-12.5-2.6c2.3-0.9,4.5-2.2,6.6-3.7c3.9-2.9,6.4-6.4,8.1-9.7
					C436,24.4,440.5,27.6,442.9,31.7z"/>
			</g>
		</g>
		<path class="st12" d="M387.7,141.7c3.6-0.9,6.7-2.7,9.1-5.1c0.9-0.9,2.3,0.1,1.8,1.2c-3,7.4-10.5,15-18.7,17.8
			c-14.7,5.1-30.1-4.1-35.2-18.8c-5.1-14.7,2.7-32.5,17.3-37.8c7.9-2.9,16.5-3.6,23.7,3.2c0.9,0.8,0.6,2.2-0.6,2.1
			c-2.7-0.3-5.5,0.1-8.2,1c-10.5,3.8-15.6,15.9-10.5,26.2C370.3,139.5,379.2,143.7,387.7,141.7z"/>
		<path class="st11" d="M435.7,184.8c-0.6,0.3-1.2,0.5-1.8,0.8c-4.2,1.7-9.3,3.4-14.8,5.2c-1.3,0.4-2.7,0.8-4.1,1.2
			c-7.3,2.1-14.2,4-20,5.3c-1.2-2-2-4.3-2.5-6.7c-0.1-0.4-0.1-0.8-0.2-1.2c-0.1-1-0.2-2-0.2-3c0-0.4,0-0.8,0-1.2
			c0-0.4,0.1-0.8,0.1-1.3c1.2-10.9,10.5-19.3,21.7-19.3c6.8,0,12.9,3.1,16.9,8.1c0.1,0.1,0.1,0.2,0.2,0.3c1.1,1.3,1.9,2.8,2.7,4.4
			c0.1,0.1,0.1,0.2,0.2,0.3C434.9,179.8,435.6,182.2,435.7,184.8z"/>
		<path class="st11" d="M435.8,185.6c-4.7,1.7-10.5,3.4-16.7,5.2c5.5-1.8,10.6-3.5,14.8-5.2c0.6-0.3,1.2-0.5,1.8-0.8
			C435.7,185,435.8,185.3,435.8,185.6z"/>
		<path class="st11" d="M435.8,186.4c0,1.4-0.1,2.8-0.4,4.1c0,0.3-0.1,0.5-0.2,0.8c-2.2,9.7-10.9,17-21.3,17c-5.8,0-11.1-2.3-15-6
			c-0.2-0.2-0.3-0.3-0.5-0.5c-1.2-1.2-2.2-2.5-3.1-4c-0.1-0.2-0.2-0.4-0.3-0.5c5.8-1.2,12.7-3.2,20-5.3c1.4-0.4,2.7-0.8,4.1-1.2
			c6.2-1.8,12-3.5,16.7-5.2C435.8,185.8,435.8,186.1,435.8,186.4z"/>
		<g>
			<path class="st12" d="M448.2,176.7c-1.7-6.8-10.2-5.4-13.3-4.9c-1.3,0.2-2.6,0.5-4,0.8c0.1,0.1,0.1,0.2,0.2,0.3
				c1.1,1.3,1.9,2.8,2.7,4.4c0.6-0.1,1.2-0.2,1.8-0.3c1.2-0.2,2.8-0.4,4.2-0.4c2,0,3.7,0.4,4,1.6c0.5,2.1-3.8,4.6-6.5,5.9
				c-0.5,0.3-1.1,0.5-1.6,0.8c-0.6,0.3-1.2,0.5-1.8,0.8c-4.2,1.7-9.3,3.4-14.8,5.2c-1.2,0.4-2.4,0.8-3.6,1.2
				c-6.4,2.1-12.6,4-17.7,5.3c-0.8,0.2-1.6,0.4-2.4,0.5c-0.8,0.2-1.5,0.3-2.2,0.4c-2.9,0.5-7.7,0.9-8.3-1.2
				c-0.5-2.1,3.8-4.6,6.5-5.9c0.4-0.2,0.8-0.4,1.2-0.6c-0.1-0.4-0.1-0.8-0.2-1.2c-0.1-1-0.2-2-0.2-3c0-0.4,0-0.8,0-1.2
				c-0.9,0.4-1.8,0.8-2.6,1.2c-2.9,1.4-10.8,5.3-9,12.1c1.1,4.4,5,5.4,8.5,5.4c1.9,0,3.7-0.3,4.8-0.5c1.6-0.3,3.3-0.6,5.2-1.1
				c0.6-0.1,1.2-0.3,1.8-0.5c4.7-1.2,10.1-3,15.9-4.8c6.3-2,11.9-3.8,16.7-5.7c0.7-0.3,1.3-0.5,2-0.8c1.3-0.6,2.6-1.1,3.8-1.7
				c2.7-1.3,9.3-4.5,9.3-10.2C448.5,178,448.4,177.3,448.2,176.7z"/>
		</g>
		<path class="st13" d="M336.4,187.7c0,8.8-7.1,15.9-15.9,15.9c-1.8,0-3.5-0.3-5.2-0.9c-3.7,3.8-9.6,6.2-16.1,6.2
			c-7,0-13.2-2.8-16.8-7c-1,0.2-2,0.3-3.1,0.3c-8.8,0-15.9-7.1-15.9-15.9s7.1-15.9,15.9-15.9c2.5,0,4.8,0.6,6.9,1.6
			c2.4-5.9,8.1-10,14.8-10c6.9,0,12.7,4.3,15,10.4c1.4-0.4,3-0.7,4.5-0.7C329.3,171.8,336.4,178.9,336.4,187.7z"/>
		<path class="st13" d="M429.1,21.9c-1.7,3.3-4.2,6.8-8.1,9.7c-2,1.5-4.2,2.8-6.6,3.7c0,0,0,0,0,0c-6.4-1-13.7-1.7-21.6-2.1
			c-17.8-1.1-38.9-1.1-61.7-1.1c-21.4,0-41.2,0-58.1,0.9c-7.8,0.4-14.9,1-21.4,1.9c-5.3-4-9.1-9.7-11-16.4c1.8-0.3,3.7-0.7,5.6-1
			c20.6-3.1,49-3.1,81.7-3.1c28.3,0,55.1,0,75.4,2.2c5.6,0.6,10.6,1.4,15,2.3C422.5,19.8,426.1,20.8,429.1,21.9z"/>
		<circle class="st9" cx="244.5" cy="79.9" r="4"/>
		<circle class="st9" cx="300.1" cy="93.1" r="4"/>
		<circle class="st9" cx="299.8" cy="134.5" r="4"/>
		<circle class="st9" cx="370.9" cy="83.5" r="4"/>
		<circle class="st9" cx="410.8" cy="99.3" r="4"/>
		<circle class="st9" cx="410.4" cy="142.4" r="4"/>
	</g>
</g>
</svg>
