<?xml version="1.0" encoding="utf-8"?>
<!-- Generator: Adobe Illustrator 22.0.1, SVG Export Plug-In . SVG Version: 6.00 Build 0)  -->
<svg version="1.1" id="Layer_1" xmlns="http://www.w3.org/2000/svg" xmlns:xlink="http://www.w3.org/1999/xlink" x="0px" y="0px"
	 viewBox="0 0 512 512" style="enable-background:new 0 0 512 512;" xml:space="preserve">
<style type="text/css">
	.st0{fill:#5FA194;}
	.st1{fill:#8EC4A0;}
	.st2{fill:#5A5A93;}
	.st3{opacity:0.14;fill:#2D2D51;enable-background:new    ;}
	.st4{fill:#96B6DF;}
	.st5{fill:#F2A26D;}
	.st6{fill:#F9BD8C;}
	.st7{opacity:0.27;fill:#E18E24;enable-background:new    ;}
	.st8{fill:#D37F24;}
	.st9{fill:#543825;}
	.st10{fill:#CC6A4C;}
	.st11{fill:#6B67A3;}
	.st12{fill:#FFC48E;}
	.st13{fill:#849BCD;}
	.st14{display:none;opacity:0.14;fill:#2D2D51;enable-background:new    ;}
	.st15{fill:#917244;}
	.st16{fill:#C1BAB6;}
	.st17{fill:#7D9BC6;}
	.st18{fill:#F3D9C6;}
	.st19{fill:#F26983;}
	.st20{fill:#D3C7BE;}
	.st21{fill:#C4BD62;}
	.st22{fill:#507F76;}
</style>
<g id="_x36_">
	<path class="st0" d="M423.5,350.8H60.4c0,0-1.1,13.8-1.1,30.6c0,18.8,1.1,30.6,1.1,30.6h363.1c0,0,3.3-4,3.3-30.6
		C426.7,354.7,423.5,350.8,423.5,350.8z"/>
	<polygon class="st1" points="423.5,350.8 60.3,350.8 85.9,342.5 401.9,338.3 	"/>
	<path class="st2" d="M372.8,335.2l-116.3-2.1c0,0,0.5-8.9,5.2-22.8c6.2-18.7,4.2-19.7,4.2-19.7l124.6-12.5l10.4,18.7L372.8,335.2z"
		/>
	<path id="Sombra_6_" class="st3" d="M278.3,294.4v8.5c0.6,1,30.3,8.8,55.6,4.3c29.7-5.3,55.7-19,55.7-19L316,274.7L278.3,294.4z"/>
	<path class="st4" d="M392.5,282.5c0,0-89.3,49.6-137,37.2c0,0,5.3-18.9,2.1-44.6c-3.7-29.5-12.5-67.7-2.1-71.6
		c16.6-6.2,18-8,33.2-11.4c-0.6-4.7,23.5-4.9,33.2-10.4c9.8-5.5,22.1-4.5,42.6-1c6.2,1,24.5,40.1,22.5,51.7
		C385.2,243.2,392.5,282.5,392.5,282.5z"/>
	<g>
		<path class="st5" d="M242.8,142.4c-8-4.7-31.4,1.4-22.6,15.6c8.7,14.1,23.2,9.3,23.2,9.3l17.8,10c0,0,12.5,3.4,19.3,14.7
			c4.8,8,17,8.4,24,6.2c10.6-3.3,16.3-9.9,18.5-15.9c1.1-3.1-4.7-9.4-4.7-9.4S250.8,147.3,242.8,142.4z"/>
		<path id="cara_4_" class="st6" d="M257.6,55.4c-78.7,28.9-26.9,100.6-26.9,100.6c4,16.2,28.8,39.4,74.2,24.7s47.8-34.6,47.8-34.6
			c11.4-0.5,30.8-16.4,21.6-28.8c-9.1-12.5-28.5,2-28.5,2C338.6,64.3,318.3,33.2,257.6,55.4z"/>
		<path class="st7" d="M346.6,70.9c-11-34.6-34.9-35.2-34.9-35.2c-6.7-7.8-24.5-8.3-38-4c-29.1,9.5-52.7-2.1-52.7-2.1
			c-2.9,18,6.4,25.1,6.4,25.1c-12.9,7.2-26-10.4-26-10.4c-3.8,7.7,7.4,26.1,7.4,26.1c-0.1,6.5,19.6,6.5,19.6,6.5
			c37.1,2.9,69.5-19.1,69.5-19.1c14.3,18,24.3,22.5,32.2,26.6S341.8,97,341.8,97l8.8,6.4C350.6,103.4,357.7,105.6,346.6,70.9z"/>
		<path class="st8" d="M347.6,65c-11-34.6-33.7-35.5-33.7-35.5c-6.7-7.8-24.5-8.3-38-4c-29.1,9.5-45.1-2.1-45.1-2.1
			c-2.9,18-2,25.1-2,25.1c-12.9,7.2-21-10.4-21-10.4c-3.8,7.7,6.9,26.1,6.9,26.1c-27.8,36.3,11,83.6,11,83.6
			c-19.9-48.8,7.8-77.3,7.8-77.3c37.1,2.9,69.5-19.1,69.5-19.1c14.2,17.9,20.3,22.9,28.1,27c7.9,4.1,13,41.7,13,41.7l14.1-7
			C358.3,113.1,358.6,99.8,347.6,65z"/>
		<path class="st9" d="M265.3,129.8c-2.6,0.6-5.2,1.3-7.9,2.2c-5.3,1.9-10.1,4.3-14.2,7c-0.1-2.7,0.7-5.4,2.3-7.8
			c4.1-5.8,12.2-7.2,18-3C264.2,128.7,264.8,129.2,265.3,129.8z"/>
		<path class="st9" d="M316.1,120.1c-2.6-0.2-5.4-0.2-8.2-0.1c-5.6,0.3-10.9,1.2-15.6,2.7c0.7-2.6,2.2-5,4.5-6.8
			c5.6-4.4,13.8-3.4,18.1,2.3C315.3,118.7,315.7,119.4,316.1,120.1z"/>
		<path class="st10" d="M282.9,164.2c-8.2,0-20.9-4.8-15.2-8.9c13.7-9.9,33.2-12.2,33.2-12.2C303.1,163.3,286.5,164.2,282.9,164.2z"
			/>
	</g>
	<path class="st2" d="M346.8,441.2c0,0,0.6,20.8-2.8,28.4s-7.3,19.8-32.1,6.5c-23.1-12.6-16.1-23.3-13.7-29.2
		c2.4-5.9,22.1-45.8,22.1-45.8L346.8,441.2z"/>
	<path id="Sombra_5_" class="st3" d="M323.3,453.7c5.1,2.4,23.4,5.9,23.4,5.9c0.6-1.5-10.1-7.6-14.5-16.2l-27.3-12.5
		C304.9,430.9,316.6,450.5,323.3,453.7z"/>
	<path class="st11" d="M330.1,308.2c-14.8,28.7-19.1,64.1-21.9,75.6c-5.5,22-8.5,43.2-8.5,43.2s44.3,35.6,52.1,33.8
		s29.9-72.2,36.7-98c3.4-13,9.7-42.6-1.5-54.4C375.3,296.1,342.7,283.6,330.1,308.2z"/>
	<path id="Sombra_3_" class="st3" d="M351,440c2.6-0.9,4.2-5.2,4.2-5.2c0.2-0.9-54-34.3-54-34.3s-2.8-0.8,12.5,14.5
		C319.4,420.9,343.2,442.8,351,440z"/>
	<path id="Sombra_4_" class="st3" d="M378.6,370.6c1,1.8-2,11-2,11c0-0.9-55-52.5-55-52.5s5.5-1,22.6,12.4
		C351.8,347.4,377,367.8,378.6,370.6z"/>
	<path class="st2" d="M346,368.7c0,0,38.4,16,43.7,18.7c5.3,2.7,16.9,5.8,8.1,30.3c-9.5,26.1-19.7,19.8-26.8,16.5
		c-7.1-3.3-19.4-18.8-19.4-18.8L346,368.7z"/>
	<path class="st11" d="M242,344.8c-0.9,16.3,21.5,33.7,31.9,41c20.6,14.4,79.3,51,86.1,47.1s17.2-60.1,17.2-60.1s-15-13.5-32.3-25.9
		c-9-6.5-33.6-29.5-61.7-40.6C259,296.7,243,327.9,242,344.8z"/>
	<path class="st12" d="M363.9,233.4l41.3-15.2c0,0,5.8,22.7,7.2,30.7c1.8,10.7,4.6,24.3,3.3,42.7c0,0,6.6,11.7,8.1,19
		c0.4,2,5.9,14,1.4,15c-4.1,0.8-9.6-14.6-11.3-14.8c-2.4-0.3,7.8,20,1.2,22.6c-4.2,1.6-9.5-19.8-10.8-18.2
		c-5.1,5.9,1.3,20.4-10.9,21.7c-6.5,0.7,1.3-23.1-2.2-22.7c-2.7,0.3-8.8,23.8-17.1,22.5c-4.5-0.7,5-26,5.8-28.5
		c0.9-2.5-2-3.1-4.6-3.4c-2.6-0.3-14.5,1.2-13-4.1c1-3.6,17.2-12.4,17.2-12.4s3.6-12.5-1.4-28.6C375,250.2,363.5,239.3,363.9,233.4z
		"/>
	<path class="st7" d="M362.7,232.4c0,0,4.3,9.3,4.1,9c2.4,2.1,40-16.7,40-16.7l-2-9.2L362.7,232.4z"/>
	<path id="Manga2_7_" class="st13" d="M360.3,241.3c0,0-14-28.6-9.7-47.5c3.8-16.9,27.3-15.6,35.4-6.2c8.1,9.4,23.2,34.5,23.2,34.5
		S362.1,237.3,360.3,241.3z"/>
	<path class="st12" d="M256.9,254.9l-27.8-21.8c0,0-10.6,20.8-13.8,28.2c-4.3,10-27.6,28.1-14.1,40.4c8.3,7.5,29.5-9.6,37.7-24.1
		C243.8,269.1,255.6,260.7,256.9,254.9z"/>
	<path class="st7" d="M258.1,254.2c0,0-5.8,8.1-5.6,7.9c-2.4,1.6-26.4-23.1-26.4-23.1l4-8.5L258.1,254.2z"/>
	<path id="Manga2_6_" class="st13" d="M256.5,263.6c0,0,0.3-20.5,2.1-39.4c0.8-7.9,2.9-23.1,2.1-22.8c-9.3,3.1-9,3.4-15.6,7.3
		c-8.8,7.6-20.1,27.5-20.1,27.5S256.2,259.5,256.5,263.6z"/>
	<g id="Libros">
		<polygon class="st0" points="251.9,321.7 240.7,325.8 130.8,324.1 57.9,322.9 54.3,322.8 54.9,321.5 79.4,319.8 		"/>
		<path class="st14" d="M93.8,338.8c0,9.2,0,12.7,0,12.7h145c0,0,0.3-1.2,0.7-3.4c0-0.2-2.8,0.1-2.8,0c0.3-2.2,0-4.6,0-8.2
			C236.7,334,93.8,334.3,93.8,338.8z"/>
		<path class="st15" d="M239.5,335.3c0,7.9-1.4,12.7-1.4,12.7H89c0,0,0-3.4,0-12.7V331c0,0,0-2.3,0-8.3h149.1c0,0,0.7,3.5,1.1,7.5
			C239.4,331.9,239.5,333.7,239.5,335.3z"/>
		<path class="st3" d="M239.2,330.2c0,0.5,0,0.8,0,0.8H89c0,0,0-2.3,0-8.3h149.1C238.1,322.7,238.8,326.1,239.2,330.2z"/>
		<path class="st0" d="M200.3,235.5c0,4.9-1.2,10.2-1.5,11.2c0,0.1,0,0.1,0,0.1h0l-0.1,0.1h-71.2c0,0,0-0.1,0-0.2
			c0.2-1.1,1.4-7.3,1.4-11.3c0-3.4-0.5-8.1-0.9-10.2l-6.3,5.1l-0.7-0.4l7.3-6l26.2,1l44.4,1.7C199,226.8,200.3,230.8,200.3,235.5z"
			/>
		<path class="st16" d="M128.9,235.5c0,4-0.6,10.2-0.8,11.3c0,0.1,0,0.2,0,0.2l-4.9,1.5c0.6-6.9-0.3-13.6-1.2-18.3l6.2-5.1
			C128.4,227.1,128.9,232.1,128.9,235.5z"/>
		<path class="st17" d="M209,256.2c0,7.1-1.6,14.9-2,16.4c0,0.1,0,0.1,0,0.2h0l-0.1,0.1h-96.6c0,0,0-0.1,0-0.2
			c0.3-1.5,1.9-10.7,1.9-16.5c0-5-1.2-12.1-1.7-15l-11.5,7.6l-1-0.5l12.5-8.7L147,241l60.2,2.5C207.2,243.5,209,249.3,209,256.2z"/>
		<path class="st18" d="M112.2,256.2c0,5.8-1.2,15-1.4,16.5c0,0.1,0,0.2,0,0.2l-9.1,2.3c1-10.2-0.5-19.9-2.3-26.8l11.6-7.5
			C111.3,243.8,112.2,251.2,112.2,256.2z"/>
		<path class="st19" d="M77.1,291.9c0,11.5,2.4,24,2.9,26.5c0,0.1,0,0.2,0.1,0.3h0l0.2,0.1h143.3c0,0,0-0.1-0.1-0.4
			c-0.4-2.5-2.8-17.2-2.8-26.5c0-8,1.7-19.9,2.5-24.7l22.7,12.1l1.3,0.7l1.4-0.9l-2.3-1.3l-23.2-12.8l-54.1,2.4l-89.4,4
			C79.8,271.4,77.1,280.8,77.1,291.9z"/>
		<path class="st18" d="M55.9,304.5c2.6,4.9,4,10.7,2.2,16.9l22-1c0,0,0-0.1,0.1-0.2c0.5-1.3,3.4-8.9,3.4-13.7c0-2.8-1-6.7-2-9.6
			c-0.4-1.4-0.9-2.6-1.2-3.4c0,0,0,0,0,0l-27.6,6.2C54,301.1,55,302.7,55.9,304.5z"/>
		<path class="st20" d="M52.5,299.6c1.1,1.5,2.2,3.1,3.1,4.9l25.7-7.6c-0.4-1.4-0.9-2.6-1.2-3.4c0,0,0,0,0,0L52.5,299.6z"/>
		<path class="st16" d="M220.8,295.8c0.1,0.5-0.3,2.1-0.3,2.1l21.6-0.4c1-8.1,3.1-14.7,5-18.3l-23.9-12
			C222.5,272.7,219.8,286.6,220.8,295.8z"/>
		<path class="st1" d="M255.6,308.2c-0.1,5.8-3.1,12.2-3.7,13.4c0,0.1-0.1,0.1-0.1,0.1l-171.8-1.4c0,0,2.2-9.1,2.3-13.9
			c0-4.1-2-10.2-2.9-12.6l-27.5,5.9l-1.6,0.3l-1.7-0.5l2.7-0.6l28-6.2l65.2,1.9l107.7,3.1C252.5,297.7,255.7,302.5,255.6,308.2z"/>
	</g>
	<path class="st21" d="M149.6,412H107c0,0-3.1,0-3.1-30.6s3.1-30.6,3.1-30.6h42.6c0,0-3.1,0-3.1,30.6S149.6,412,149.6,412z"/>
	<path class="st22" d="M174.5,412h-11.4c0,0-3.1,0-3.1-30.6s3.1-30.6,3.1-30.6h11.4c0,0-3.1,0-3.1,30.6S174.5,412,174.5,412z"/>
	<path class="st22" d="M195.3,412h-11.4c0,0-3.1,0-3.1-30.6s3.1-30.6,3.1-30.6h11.4c0,0-3.1,0-3.1,30.6S195.3,412,195.3,412z"/>
</g>
</svg>
