<?xml version="1.0" encoding="utf-8"?>
<!-- Generator: Adobe Illustrator 22.0.1, SVG Export Plug-In . SVG Version: 6.00 Build 0)  -->
<svg version="1.1" id="Layer_1" xmlns="http://www.w3.org/2000/svg" xmlns:xlink="http://www.w3.org/1999/xlink" x="0px" y="0px"
	 viewBox="0 0 512 512" style="enable-background:new 0 0 512 512;" xml:space="preserve">
<style type="text/css">
	.st0{opacity:8.000000e-02;fill:#3A2512;enable-background:new    ;}
	.st1{fill:#F77C72;}
	.st2{fill:#FFC48E;}
	.st3{fill:#6B67A3;}
	.st4{opacity:0.14;fill:#2D2D51;enable-background:new    ;}
	.st5{fill:#96B6DF;}
	.st6{fill:#F9BD8C;}
	.st7{opacity:0.27;fill:#E18E24;enable-background:new    ;}
	.st8{fill:#849BCD;}
	.st9{fill:#F2A26D;}
	.st10{fill:#F4B990;}
	.st11{fill:#E18E24;}
	.st12{fill:#543825;}
	.st13{fill:#CC6A4C;}
	.st14{fill:#E56761;}
</style>
<g id="_x35_">
	<ellipse class="st0" cx="321.3" cy="466" rx="136.1" ry="33.9"/>
	<path class="st1" d="M257.1,200.2c0,0-86.4,34.5-112.8,61c-26.4,26.4-67,89.4-89.4,84.3c0,0-5.1,45.7,24.4,51.8
		c29.5,6.1,76.2-27.4,94.5-15.2c18.3,12.2,87.4,19.3,87.4,19.3L310,224.6L257.1,200.2z"/>
	<path class="st2" d="M409.9,337.1c0,0,32.2-32.6,38.7-31.8c6.5,0.9,5.8,25.8-0.2,59.4c-6,33.6-10,32.2-14.8,31.9
		c-4.9-0.3-37.7-9.3-37.7-9.3L409.9,337.1z"/>
	<path class="st2" d="M279.8,441.2c0,0,7.7,13.9,6.6,20.3s-1.2,16.2-32.8,16.3c-29.6,0-25.5-9.9-24.9-14.7
		c0.6-4.9,8.5-39.2,8.5-39.2L279.8,441.2z"/>
	<path class="st3" d="M222.7,309.3c0,0-0.4,89.9,0.7,106.8c1.1,17,4.4,32.5,4.4,32.5s53,8.4,60,4.4c7-4.1,9.8-80.6,9.8-80.6
		l101.8,24.2l14.9-63.9l-100.9-38.3L222.7,309.3z"/>
	<path id="Sombra_1_" class="st4" d="M222.6,311.7v8.3c0.6,1,29.7,8.6,54.5,4.2c29.1-5.2,54.6-18.6,54.6-18.6l-72.1-13.2
		L222.6,311.7z"/>
	<path class="st5" d="M334.3,300c0,0-96.6,41.4-126.9,5.2l25.4-71.1c0,0-0.7-20.3-1.4-25c-0.6-4.6,23.5-5.2,33-10.6
		c9.5-5.4,39.1-5.2,52.5-0.9c3,1,14.8,3.7,16.7,5.3c13,11.6-2.7,36.6-4.7,48C327.2,261.6,334.3,300,334.3,300z"/>
	<path class="st2" d="M323.7,252.9l29-9.3c0,0,7.1,20,7.4,27c0.4,9.3-3.8,21.3-5.7,37c0,0,3.3,10.7,3.7,17.1
		c0.1,1.7,2.6,8.5-0.1,8.9c-2.5,0.3-4.9-9.3-5.9-9.7c-1.4-0.5,3.5,13.8-0.7,15.4c-2.6,1-4.5-13.8-5.4-12.6
		c-3.5,4.6-0.5,13.6-7.9,13.6c-4,0,2.2-15.6,0.1-15.6c-1.6,0-6.8,15.6-11.7,13.7c-2.6-1,2.1-17.9,2.7-19.9c0.7-2-1-2.8-2.5-3.4
		c-1.5-0.5-13.2-0.3-12-4.7c0.8-3,15.5-4.1,15.5-4.1s5.5-15.5,3.5-29.8C332.4,268.3,323.1,257.9,323.7,252.9z"/>
	<path class="st6" d="M245.7,208.4l-15.2,22.3c0,0-31.1-20-39.3-31.1c-7-9.5-16.2-15.8-28.5-31.7c0,0-12.5-6.6-18.6-12
		c-1.6-1.4-10.1-5.3-7.9-8c1.9-2.5,12.8,3.9,13.9,3.4c1.7-0.8-15.4-9.2-13.3-14.4c1.4-3.3,16.4,8.2,16.1,6.4
		c-1-7.2-11.8-12.6-5.3-19.2c3.6-3.6,12.1,15.9,13.9,14.1c1.4-1.4-7.9-20.1-1.9-22.8c3.3-1.4,14.2,17.8,15.4,20.2
		c1.2,2.4,3.5,1.6,5.3,0.7c1.7-0.9,12.1-11.6,14.9-6.7c2,3.5-10.2,17.6-10.2,17.6s9.8,22.1,24.4,33
		C218.3,186.6,241.7,203.2,245.7,208.4z"/>
	<path class="st7" d="M322.7,254.3c0,0,3.1,5.4,4.4,7.6c1.3,2.3,27.8-11.5,27.8-11.5l-6.8-18.8L322.7,254.3z"/>
	<path id="Manga2_1_" class="st8" d="M320.6,260.7c0,0-8-29.3-3.5-47.2c4.1-16.1,21.1-12.4,26.3-2.4c5.2,10,14.3,36,14.3,36
		S322.2,257,320.6,260.7z"/>
	<path id="Manga2_2_" class="st8" d="M228.6,188.7c0,0,4.3,2.5,8.5,5.8c0.6,0.4,13.1,8.6,13.1,9.2c-0.1,7.5-16.3,35.5-19.2,35.7
		c-2.3,0.1-20.5-19.5-20.5-19.5S227.3,193.3,228.6,188.7z"/>
	<g>
		<path class="st9" d="M264,192.2c0,0-4.7,8.1-2.7,11.2c3.8,5.9,11.5,11.6,23.7,12.6c8,0.7,21-2.6,24.3-12.4
			c4.6-13.7,17.2-20.4,17.2-20.4l16.7-15c0,0,16.7,1.7,22.7-15.5s-20.6-18.2-28-11.3C330.3,148.4,264,192.2,264,192.2z"/>
		<path id="cara_1_" class="st10" d="M215,142.8c0,0-24.3-11-31.1,4.7c-6.9,15.5,17.7,27.9,30.1,25.7c0,0,7.4,20.8,59.6,25.7
			s87.7-8.5,73.7-44.4c0,0,38.4-89.5-53-101.6C223.6,43.7,209.4,82,215,142.8z"/>
		<path class="st7" d="M205.8,126.9l7.9-9c0,0,2-10.2,9.4-16.5c7.4-6.3,17.2-13.5,28.1-36.3c0,0,40.1,15.7,79.2,3.8
			c0,0,6.9-1.6,5.3-8.5c0,0,2.1-21.2-3.8-28.5c0,0-4.5,20.9-20,16.3c0,0,14.4-11.3,7-29.9c0,0-14.4,16.3-48,13.1
			c-15.5-1.4-34.5,3.5-39.8,13.4c0,0-25.5,6.4-29,46.2C198.8,130.8,205.8,126.9,205.8,126.9z"/>
		<path class="st11" d="M199.9,139.1l16.9,4.2c0,0-3.6-41.7,4-48c7.4-6.3,12.7-13.1,23.7-35.8c0,0,40.1,15.7,79.2,3.8
			c0,0,36.6,23.9,26.9,81.1c0,0,25.4-60.5-13.2-92.8c0,0-3.3-18.5-9.2-25.8c0,0-4.5,20.9-20,16.3c0,0,14.4-11.3,7-29.9
			c0,0-14.4,16.3-48,13.1c-15.5-1.4-34.5,3.5-39.8,13.4c0,0-36.1,9.7-35.5,47.2C188.6,125.8,199.9,139.1,199.9,139.1z"/>
		<path class="st12" d="M278.6,139.7c-0.2,0.6-0.4,1.1-0.7,1.6c-1.2-1.6-3-2.9-5.2-3.7c-5.1-1.7-10.6,0.6-13,5.2
			c-2.1-2.7-2.9-6.5-1.7-10.2c1.9-5.7,8.1-8.8,13.8-6.9C277.3,127.7,280.5,133.9,278.6,139.7z"/>
		<path class="st12" d="M330,145.6c-0.3,0.5-0.7,1-1.2,1.3c-0.7-1.9-2-3.7-3.9-5c-4.4-3.1-10.4-2.5-14,1.2
			c-1.2-3.3-0.9-7.1,1.2-10.3c3.5-5,10.4-6.1,15.2-2.6C332.3,133.9,333.4,140.7,330,145.6z"/>
		<path class="st13" d="M271.2,161.5c0,0,22.5-8.9,39.5-1.4s-10.2,20.4-19,22.3C287.9,183.3,273.7,183.7,271.2,161.5z"/>
	</g>
	<path class="st8" d="M323.2,199.2c0,0-11.2,12.4-17.3,17.3c-2.1,1.7-3.9,2.4-6.1,4.1c-0.2,0.2,0.8,2.1,1,4.1c0.3,2.9,0,6.1,0,6.1
		s-10.9-4.2-11.2-4.1c-2,1-3.7,1.7-4.1,2c-1,1-12.2,5.1-12.2,3s2.6-14.5,7.1-15.2c6.1-1,8.1,1,8.1,1s29.5-16.3,30.5-18.3
		C320.1,197.2,323.2,199.2,323.2,199.2z"/>
	<path class="st1" d="M323.2,199.2c0,0-13.3,11.4-19.3,16.3c-5.1,4.1-14.2,5.1-14.2,5.1s-5.1,6.1-6.1,7.1s-12.2,5.1-12.2,3
		s2.6-14.5,7.1-15.2c6.1-1,8.1,1,8.1,1s29.5-16.3,30.5-18.3C318.1,196.2,323.2,199.2,323.2,199.2z"/>
	<path class="st1" d="M251,203.3c0,0,12.1,12.4,18.2,17.3c5.1,4.1,10.3,1,10.3,1s3,2,4.1,3c1,1,14.2,8.1,14.2,6.1s2-13.2-4.1-13.2
		c-4.5,0-12.2-1-12.2-1s-21.3-13.2-22.3-15.2C257.1,197.2,251,203.3,251,203.3z"/>
</g>
<path class="st14" d="M80.4,381.6c0,0,70-14.1,78.4-47.4s28.4-65.9,43.7-72.1c0,0,0.5,30.5-11.6,50.6c-12,20.1-41.1,61.3-49.5,62.9
	C133.1,377.2,80.4,381.6,80.4,381.6z"/>
</svg>
