<?xml version="1.0" encoding="utf-8"?>
<!-- Generator: Adobe Illustrator 22.0.1, SVG Export Plug-In . SVG Version: 6.00 Build 0)  -->
<svg version="1.1" id="Layer_1" xmlns="http://www.w3.org/2000/svg" xmlns:xlink="http://www.w3.org/1999/xlink" x="0px" y="0px"
	 viewBox="0 0 512 512" style="enable-background:new 0 0 512 512;" xml:space="preserve">
<style type="text/css">
	.st0{opacity:8.000000e-02;fill:#3A2512;enable-background:new    ;}
	.st1{fill:#F4B990;}
	.st2{fill:#849BCD;}
	.st3{opacity:0.14;fill:#2D2D51;enable-background:new    ;}
	.st4{fill:#8FB9EA;}
	.st5{opacity:0.27;fill:#E18E24;enable-background:new    ;}
	.st6{fill:#F2A26D;}
	.st7{fill:#E18E24;}
	.st8{fill:#543825;}
	.st9{fill:#CC6A4C;}
	.st10{fill:#F5A377;}
	.st11{fill:#EC3748;}
	.st12{fill:#F3AC39;}
	.st13{fill:#B6D23D;}
	.st14{fill:#5BD2D2;}
	.st15{fill:#48C0DA;}
	.st16{fill:#9379D8;}
	.st17{fill:#854ECF;}
</style>
<path class="st0" d="M342,484.1c0-9.3-34-16.9-75.9-16.9s-75.1,7.7-75.9,16.9c-1.2,16.9,34,16.9,75.9,16.9
	C308,501,342,501,342,484.1z"/>
<ellipse class="st0" cx="266.1" cy="435.1" rx="176.3" ry="48.2"/>
<g id="_x33__1_">
	<path class="st1" d="M391,378.6c0,0,34.9-31.3,41.5-30c6.5,1.4,4.3,26.7-4,60.6s-12.2,32.4-17.2,31.7c-5-0.7-37.9-11.9-37.9-11.9
		L391,378.6z"/>
	<path id="Pantalones" class="st2" d="M133.1,352.9c0,0,48.9,41,118.3,35.1c69.2-5.9,73.5-37,73.5-37l69.4,23.2
		c0,0-9.8,54.9-6.9,60.4c2.9,5.5-143.4,2.4-143.4,2.4s-121.2,43-121.2-46.5C122.6,360.3,133.1,352.9,133.1,352.9z"/>
	<path class="st3" d="M133.5,352.4l-5.2,6.9c0,0,44.8,49.9,129.1,37.9s91.2-37.9,91.2-37.9L297,342.1L133.5,352.4z"/>
	<path class="st4" d="M126.9,350.5l35.1-63.5l56.6-3.3c0,0,0,21.7,42.5,22.7c36.3,0.9,46.3-83.5,46.3-83.5s27.4,96.8,19.3,134.5
		C316.1,407.7,164.5,410.3,126.9,350.5z"/>
	<path class="st1" d="M162.9,360.5l50.1-25.7l5.9,6.5c0,0,21.7,65.9,23.8,90.4c0,0,10.3,6,4.6,25.3c-2.4,8.3-8.1-3.3-8.4-5.7
		s-9.8,20.8-14.6,19.3c-4.8-1.5-4.1-9.6-3.8-12.1c0.3-2.4-5.3-0.7-11.7,7.2c-6.4,7.9-8.3-4.3-7.6-7.6c0.7-3.3-10.2,5.3-13.6,5
		c-3.4-0.3-6.7-21.5-6.7-21.5l17.6-5.9C198.4,435.9,165,381.9,162.9,360.5z"/>
	<path class="st1" d="M290.8,324.2l-5.5,90c0,0-10.2,7.2-7.9,16.4c2.2,9.1,1.5,13.6,6.5,12.4c3.6-0.9,1.4-8.4,2.4-8.6
		c6.7-1.7,15.2,19.6,18.6,18.6c5-1.5-0.7-12.1,3.8-12.9c3.3-0.7,10.3,11.4,14.1,10.5c6.9-1.5,1-9,3.8-11c3.1-2.4,12.2,9.6,14.8,7.4
		c4.1-3.8-3.8-11.2-4-14.1s11.2,6.9,12.4,5.5c3.3-4-9-20-22.6-22.6c0,0,21.5-51.8,24.3-78.5C354.2,310.4,290.8,324.2,290.8,324.2z"
		/>
	<path class="st5" d="M162.9,354.8c0,0,0,7.6,1,11.2c1,3.6,56-21,56-21l-25.8-22.2L162.9,354.8z"/>
	<path class="st5" d="M290.3,333.5l5-15.5l60.8,13.3l-4.8,7.4c0,0-0.9,6.9-2.2,12.4C347.6,356.6,290.3,333.5,290.3,333.5z"/>
	<path id="Manga" class="st2" d="M153.6,364.5c0,0-22.4-48.5,0-67.8s52.2-11.4,58.7,6.5c6.5,17.7,10.8,41.1,10.8,41.1
		S156.4,358.5,153.6,364.5z"/>
	<path id="Manga2" class="st2" d="M287.7,332.3c0,0,4.1-48.9,23.2-71.4c17.2-20,45.1-0.7,48.2,18.1c2.9,18.8,2.9,64,2.9,64
		S292.7,328.3,287.7,332.3z"/>
	<path class="st6" d="M218.4,288c0,0,15.8,25.1,42.2,22.4c26.3-2.6,49.4-56.6,49.4-56.6l38.9-29.1c0,0,23.8-1.9,27.7-27.7
		c4-25.8-33.6-20.1-42.2-8.4C325.8,200.2,218.4,288,218.4,288z"/>
	<path id="cara" class="st1" d="M144.5,245.3c0,0-37.7-4-39.9,20.1c-2.4,24.1,36.3,30,52.2,21.3c0,0,34.4,19.8,107.1,3.1
		c72.7-16.7,114.8-50.8,79.9-93c0,0,11.9-138.2-117.2-113.6C126.9,102.3,109.9,165.6,144.5,245.3z"/>
	<path class="st5" d="M126.9,227.3l6.7-15.8c0,0-1.7-14.6,5.5-26.5c7.2-11.9,30.3-30.3,34.9-65.9c0,0,61.3,3.3,108.8-30.3
		c0,0,8.6-5.3,3.3-13.8c0,0-6.5-29.6-17.7-37c0,0,3.3,30.3-19.8,31c0,0,14.5-21.7-4-43.6c0,0-12.2,28.4-59.1,39.3
		c-21.7,5-45.1,20.1-47.9,36c0,0-44.8,24.4-31.7,79.9C119.4,235.7,126.9,227.3,126.9,227.3z"/>
	<path class="st7" d="M122.6,247.1l24.8-1.9c0,0-23.4-54.7-16.2-66.6c7.2-11.9,26.3-28.4,31-64c0,0,61.3,3.3,108.8-30.3
		c0,0,60.3,15.8,72.7,97.6c0,0,1.2-87.1-65.4-113.5c0,0-6.5-29.6-17.7-37c0,0,3.3,30.3-19.8,31c0,0,14.5-21.7-4-43.6
		c0,0-12.2,28.4-59.1,39.3c-21.7,5-45.1,20.1-47.9,36c0,0-44.8,24.4-31.7,79.9C111.4,229.3,122.6,247.1,122.6,247.1z"/>
	<path class="st8" d="M227.7,223.8c0,0.9,0,1.7-0.2,2.6c-2.4-1.5-5.3-2.6-8.6-2.6c-7.7,0-14.1,5.5-15.3,12.9
		c-4.1-2.8-6.9-7.6-6.9-12.9c0-8.6,6.9-15.5,15.5-15.5C220.6,208.2,227.7,215.2,227.7,223.8z"/>
	<path class="st8" d="M299.8,208.5c-0.2,0.9-0.5,1.7-1,2.4c-1.9-2.2-4.5-4-7.4-5c-7.4-2.2-15.2,1.2-18.4,7.9
		c-3.3-3.8-4.5-9.1-2.9-14.3c2.6-8.3,11.2-12.9,19.5-10.3C297.7,191.6,302.4,200.2,299.8,208.5z"/>
	<path class="st9" d="M242.6,252.7c0,0,17.6-15,35.3-13.3c17.7,1.7-3.1,21.5-10.3,26C264.3,267.4,251.6,272,242.6,252.7z"/>
	<path class="st10" d="M142.9,421.1c0,0-0.5-43.2,26.7-45.5c27.2-2.2,27.2,48,26.5,56.8c-0.7,8.8-6.4,40.3-22,40.1
		C158.6,472.4,143.5,447.5,142.9,421.1z"/>
</g>
<g>
	<path class="st11" d="M311.9,491.5h-91.6c-7.2,0-13.1-5.9-13.1-13.1v-1.7c0-7.2,5.9-13.1,13.1-13.1h91.6c7.2,0,13.1,5.9,13.1,13.1
		v1.7C324.9,485.7,319.1,491.5,311.9,491.5z"/>
	<path class="st12" d="M307.2,463.8h-82.1c-5.3,0-9.6-4.3-9.6-9.6v-2.8c0-5.3,4.3-9.6,9.6-9.6h82.1c5.3,0,9.6,4.3,9.6,9.6v2.8
		C316.7,459.3,312.4,463.8,307.2,463.8z"/>
	<path class="st13" d="M302.7,441.8h-73.2c-4.6,0-8.4-3.8-8.4-8.4v-2.2c0-4.6,3.8-8.4,8.4-8.4h73.2c4.6,0,8.4,3.8,8.4,8.4v2.2
		C311.2,438,307.4,441.8,302.7,441.8z"/>
	<path class="st14" d="M298.6,422.7h-65.1c-4.3,0-7.7-3.4-7.7-7.7v-2.6c0-4.3,3.4-7.7,7.7-7.7h65.1c4.3,0,7.7,3.4,7.7,7.7v2.6
		C306.3,419.2,302.9,422.7,298.6,422.7z"/>
	<path class="st15" d="M295,404.6h-57.8c-3.8,0-6.9-3.1-6.9-6.9v-2.4c0-3.8,3.1-6.9,6.9-6.9H295c3.8,0,6.9,3.1,6.9,6.9v2.4
		C302,401.5,298.8,404.6,295,404.6z"/>
	<path class="st16" d="M291.2,388.4h-50.3c-3.4,0-6.4-2.9-6.4-6.4v-2.8c0-3.4,2.9-6.4,6.4-6.4h50.3c3.4,0,6.4,2.9,6.4,6.4v2.8
		C297.6,385.5,294.6,388.4,291.2,388.4z"/>
	<path class="st17" d="M285.9,372.9h-39.6c-3.1,0-5.7-2.6-5.7-5.7v-4c0-3.1,2.6-5.7,5.7-5.7h39.6c3.1,0,5.7,2.6,5.7,5.7v4
		C291.5,370.3,289.1,372.9,285.9,372.9z"/>
	<path class="st0" d="M323.7,484.3c-1.9,4.5-6.7,7.6-11.9,7.6h-91.4c-5.3,0-10-3.1-11.9-7.6H323.7z"/>
	<path class="st0" d="M315.6,459c-1.5,3.1-4.8,5.2-8.4,5.2h-82.1c-3.6,0-6.9-2.1-8.4-5.2H315.6z"/>
	<path class="st0" d="M310,438c-1.5,2.6-4.1,4.3-7.2,4.3h-73.2c-3.3,0-5.9-1.7-7.4-4.3H310z"/>
	<path class="st0" d="M306,417.8c-1,2.9-4,5.2-7.2,5.2h-65.1c-3.4,0-6.4-2.2-7.4-5.2H306z"/>
	<path class="st0" d="M300.2,402.9c-1.2,1.5-3.3,2.4-5.2,2.4h-57.8c-1.9,0-4-0.9-5.2-2.4H300.2z"/>
	<path class="st0" d="M297.1,385c-1,2.4-3.3,4-5.9,4h-50.3c-2.6,0-5-1.5-5.9-4H297.1z"/>
	<path class="st0" d="M291.4,368.6c-0.2,2.8-2.6,4.8-5.3,4.8h-39.6c-2.8,0-5.2-2.1-5.3-4.8H291.4z"/>
	<path class="st0" d="M315.6,459c-1.5,3.1-4.8,5.2-8.4,5.2h-82.1c-3.6,0-6.9-2.1-8.4-5.2H315.6z"/>
	<path class="st0" d="M306,417.8c-1,2.9-4,5.2-7.2,5.2h-65.1c-3.4,0-6.4-2.2-7.4-5.2H306z"/>
	<path class="st0" d="M297.1,385c-1,2.4-3.3,4-5.9,4h-50.3c-2.6,0-5-1.5-5.9-4H297.1z"/>
	<path class="st0" d="M291.4,368.6c-0.2,2.8-2.6,4.8-5.3,4.8h-39.6c-2.8,0-5.2-2.1-5.3-4.8H291.4z"/>
</g>
</svg>
