<?xml version="1.0" encoding="utf-8"?>
<!-- Generator: Adobe Illustrator 22.0.1, SVG Export Plug-In . SVG Version: 6.00 Build 0)  -->
<svg version="1.1" id="Layer_1" xmlns="http://www.w3.org/2000/svg" xmlns:xlink="http://www.w3.org/1999/xlink" x="0px" y="0px"
	 viewBox="0 0 512 512" style="enable-background:new 0 0 512 512;" xml:space="preserve">
<style type="text/css">
	.st0{opacity:8.000000e-02;fill:#3A2512;enable-background:new    ;}
	.st1{fill:#F6A575;}
	.st2{fill:#F4B990;}
	.st3{fill:#EAB28C;}
	.st4{fill:#DAEDF3;}
	.st5{fill:#B8D3DB;}
	.st6{fill:#98B5E0;}
	.st7{fill:#A6C4EA;}
	.st8{fill:#F2A26D;}
	.st9{fill:#F2A576;}
	.st10{fill:#DBB454;}
	.st11{fill:#E08E24;}
	.st12{fill:#543825;}
	.st13{fill:#CC6A4C;}
	.st14{opacity:0.22;fill:url(#SVGID_1_);}
	.st15{opacity:0.22;fill:url(#SVGID_2_);}
	.st16{fill:#3AAF50;}
	.st17{fill:#8E561A;}
	.st18{opacity:0.16;fill:#634830;}
	.st19{fill:#723D0D;}
	.st20{fill:#2D8E3A;}
	.st21{fill:#BF251D;}
	.st22{fill:#E18E24;}
	.st23{fill:#EACB13;}
</style>
<g id="_x33_">
	<g id="Nene3">
		<path id="Sombra" class="st0" d="M199.3,339.8c83.7,0,203.2,19.1,203.2,39.9c0,6.4-7.8,7.9-18.3,14.5
			c-24.6,15.4-63.1-7.9-87.8,12.1c-20.9,16.9-60.4,12.8-97.2,8.7c-71.7-7.9-151.6-16.8-151.6-37.6
			C47.7,356.6,115.6,339.8,199.3,339.8z"/>
		<path class="st1" d="M70.5,307.7L90,287.2c0,0-16.4-14.3-12.3-26.8c4.1-12.3,46.2,14.8,46.2,14.8l-22.6,50.9L70.5,307.7z"/>
		<path class="st2" d="M43.6,301.3c0,0-23.9-1.6-23.4-15.5c0.3-13.9,59.8-5.4,61.2-4.3c1.4,1.1,1.9,19.6,1.9,19.6l13.9-5.7
			c0,0,11.2,67.8,28.5,79.4c0,0-21,12.3-66.8,5.7C29.7,376.6,43.6,301.3,43.6,301.3z"/>
		<path class="st3" d="M83.9,324.6c0,0,31.7,43.7,41.8,50.4c0,0-21,12.3-66.8,5.7c-8.8-1.3-13.7-9.1-16.3-19.3
			c0,0,29.5,21.8,41.6,12c4.9-4-1.9-16.6-3.2-27.4C79.8,334.3,83.9,324.6,83.9,324.6z"/>
		<path class="st4" d="M169.8,273.1c0,0-43.7-23.3-75.1,25.7c-17.5,27.4-18,58,9.7,77.5c16.1,11.2,62.7,4.3,62.7,4.3
			S125.2,317.8,169.8,273.1z"/>
		<path class="st5" d="M129.5,343.7c-1.8,10-0.8,20.9-8.4,22.3c-30,5.4-37.1-19-37.1-19c2.6,11,9.2,21,20.9,29.2
			c16.1,11.2,62.7,4.3,62.7,4.3l-20.1-80.5C147.4,299.9,136,305.8,129.5,343.7z"/>
		<path class="st2" d="M366.6,360.6c0,0,20.1-0.3,28.1,4.3c8.1,4.6-10.8,3.5-10.8,3.5s11.8,3.7,12.8,7.7c1.1,4-15.9,0-15.9,0
			s11.2,6.2,10,8.3c-1.9,3.5-14.2-2.4-14.2-2.4s5.3,7.2,3.8,9.9c-1.3,2.7-12.9-11.6-17.2-9.2c-2.6,1.4,2.9,8.8-1.8,11.3
			c-2.9,1.6-11.8-18-11.8-18L366.6,360.6z"/>
		<path class="st6" d="M168.7,271.4c0,0-49.9,44.2-29.3,92.5c24.9,58.4,121.8,14.8,143.3,12.3c8.6-1,57.6,6.7,62.2,13.9l26.9-30.3
			c0,0-34.1-35.4-61.2-32.8c-21.2,2.1-79.6-27.1-112.1-47.4C189.4,273.9,172.2,274.6,168.7,271.4z"/>
		<path class="st2" d="M256.9,372.1c0,0,13.4-10,23.9-8.4c10.5,1.6,19.8,19.8,20.1,22.3c0.3,2.6-2.6,5.1-5.6,3.3
			c-3-1.8-9.7-9.2-9.7-9.2s6.7,14.7,6.4,17.2c-0.3,2.6-4.6,4.6-16.4-6.2c0,0,4.3,17.2,0.8,16.9s-11-2.9-13.6-12.6
			c0,0,2.6,11.8-0.8,13.9c-3.3,2.1-16.7-23-16.7-23L256.9,372.1z"/>
		<path class="st7" d="M230.9,357.9c0,0-0.8-19.6-18.5-20.4c-17.7-0.8-25.8,16.3-25.5,28.5c0.3,12.3-3,25.8,10,30.8
			c13.1,4.9,49.7,1.9,49.7,1.9s16.3-32,18.5-32s-30.8-8.1-35.1-7c-4.3,1.1-10.4,6.2-13.1,11.2c0,0,7.7-10.7,10.5-11.2
			c0,0-12.8,1.6-17.4,3.3C210,363.4,223.9,357.3,230.9,357.9z"/>
		<path class="st8" d="M334.8,284.6c0,0,18.5-10.2,29.3,0s-0.5,26.1-18.5,28.2c-18,2.1-18-16.4-18-16.4L334.8,284.6z"/>
		<path class="st8" d="M274.7,336.3c0,0-26.1-7.7-26.1,0s-1,18.5,20.6,18.5s23.1-18,23.1-18L274.7,336.3z"/>
		<path class="st2" d="M189.8,290.2c0,0-19.3-8.3-24.4,9.2c-5.1,17.5,18,22.3,30.8,18.2c0,0,19.8,28.1,75.7,26
			c56-2.1,90.4-20.2,73.5-55.3c0,0,26.3-105.9-72.4-106C196.9,182.2,175.3,226.4,189.8,290.2z"/>
		<path class="st9" d="M83.7,301.3c0,0-15.9,5.6-21.8,12.1C61.9,313.5,66.5,303.7,83.7,301.3z"/>
		<path class="st10" d="M211.4,197.1c5.6-11,25.8-20.7,43-22.3c17.2-1.8,53.4-4.1,61.2-16.7c0,0,6.1,13.9-8,23c0,0,23.3-3,26.8-15.5
			c0,0,14,36-23.8,38.6c-37.8,2.6-74.8-6.7-83.7-3.3c-8.3,3.2-28.7,12.6-28.7,12.6S209.7,200.6,211.4,197.1z"/>
		<path class="st11" d="M204.9,196.3c9.4-11.3,28.1-26,42.6-28.5c16.9-3,53.4-4.1,61.2-16.7c0,0,6.1,13.9-8,23c0,0,23.3-3,26.8-15.5
			c0,0,14,36-23.8,38.6s-69.7-2.9-78,1.6c0,0-17.2,5.9-28.5,17.2C185.8,227.5,202.4,199.3,204.9,196.3z"/>
		<path class="st12" d="M264.4,292.1c0,1-0.2,1.9-0.3,2.9c-2.2,0.2-4.6,0.6-7,1.3c-4,1.3-7.3,3-10,5.1c-3-1.9-5.1-5.4-5.1-9.4
			c0-6.2,4.9-11.2,11.2-11.2C259.4,280.8,264.4,285.9,264.4,292.1z"/>
		<path class="st12" d="M321,293.8c-0.5,1-1,1.8-1.4,2.4c-2.1-0.8-4.5-1.3-6.9-1.6c-4.1-0.5-8-0.3-11.2,0.6c-1.9-3-2.4-7-0.8-10.5
			c2.6-5.6,9.1-8.1,14.8-5.6C321,281.6,323.5,288.3,321,293.8z"/>
		<path class="st13" d="M285.3,311.2c0,0-8.8,2.6-5.7,8.9c3,6.4,11.8,5.6,14.2,4.5c4.3-2.1,7.8-7.2,4.8-11.6
			C295.3,308.5,285.3,311.2,285.3,311.2z"/>
		<radialGradient id="SVGID_1_" cx="232.6376" cy="318.2008" r="15.1336" gradientUnits="userSpaceOnUse">
			<stop  offset="0" style="stop-color:#FF3B74"/>
			<stop  offset="0.2449" style="stop-color:#FD456E;stop-opacity:0.7551"/>
			<stop  offset="0.6576" style="stop-color:#F95F5F;stop-opacity:0.3424"/>
			<stop  offset="1" style="stop-color:#F47A4F;stop-opacity:0"/>
		</radialGradient>
		<circle class="st14" cx="232" cy="317.9" r="15.1"/>
		<radialGradient id="SVGID_2_" cx="328.1684" cy="313.7868" r="15.1336" gradientUnits="userSpaceOnUse">
			<stop  offset="0" style="stop-color:#FF3B74"/>
			<stop  offset="0.2449" style="stop-color:#FD456E;stop-opacity:0.7551"/>
			<stop  offset="0.6576" style="stop-color:#F95F5F;stop-opacity:0.3424"/>
			<stop  offset="1" style="stop-color:#F47A4F;stop-opacity:0"/>
		</radialGradient>
		<circle class="st15" cx="327.5" cy="313.5" r="15.1"/>
	</g>
	<g id="Flor">
		<path class="st16" d="M497.5,278.9c0,0-3.7,10.2-10.6,11.3c-3.6,0.6-6.5-0.4-7.9-2c-0.1,0-0.1,0-0.2,0.1c-6.2,2-14.9,5.2-18,8.3
			c-5,5-10.5,11.7-9.6,20c1.2,8.5,3.1,15.8,3.1,15.9c0.1,0.5-0.2,1-0.6,1.1c-0.1,0-0.1,0-0.2,0c-0.4,0-0.8-0.3-0.9-0.7
			c-0.3-1.2-6.7-26.6-3.2-38.3v0c0.2-1.6-5-6.3-10.8-10.6c0,0,0,0,0,0c-2.2,1.5-14.7,3-19.2-6c-4.4-8.7-3.2-13.4-3-14
			c0-0.1,0-0.1,0-0.1s15.6-1.3,21.2,7.1c3,4.5,3.5,9,2.1,11.7c3.6,2.6,8.7,6.6,10.7,9.7c0,0,0,0,0,0c5.3-9.9,16.5-35.2,18-40.6
			c-0.2,0-0.3-0.1-0.5-0.1c0,0,0,0,0,0c-2.3-0.6-11.4-12.4-4.8-22c5.8-8.6,10.8-10.2,11.9-10.5c0.1,0,0.2,0,0.2,0s9.7,14.5,4.7,24.4
			c-2.6,5.1-6.4,7.9-9.7,8.3c-1.4,5.9-13.5,32.4-18.2,41.3c-1.8,3.4-2,9.5-1.5,15.8c1.8-5.6,5.9-10.2,9.3-13.6
			c3.4-3.4,12.4-6.7,18.8-8.8c0.1-2.4,2.8-9.7,9.4-10c6.5-0.2,9.1,1.7,9.7,2.1C497.4,278.8,497.4,278.8,497.5,278.9
			C497.4,278.9,497.5,278.9,497.5,278.9z"/>
		<path class="st17" d="M499.9,338.9h-88.4c-1.7,0-3.1-1.4-3.1-3.1v-12c0-1.7,1.4-3.1,3.1-3.1h88.4c1.7,0,3.1,1.4,3.1,3.1v12
			C503,337.5,501.6,338.9,499.9,338.9z"/>
		<polygon class="st17" points="412.7,338.9 496.9,338.9 484.8,391.8 426.6,391.8 		"/>
		<polygon class="st18" points="496.9,338.9 494.3,350.1 415.7,350.1 412.7,338.9 		"/>
		<path class="st19" d="M415.8,391.8h80c0.9,0,1.4,1,1,1.7l-2.5,4.1c-1,1.7-2.9,2.8-5,2.8h-66.6c-1.9,0-3.7-0.9-4.7-2.5l-3.1-4.4
			C414.3,392.9,414.8,391.8,415.8,391.8z"/>
		<path class="st20" d="M438.5,284.1C438.5,284.1,438.5,284.1,438.5,284.1c-2.2,1.5-14.7,3-19.2-6.1c-4.4-8.7-3.2-13.4-3-14
			C418.1,264.7,433.4,271.1,438.5,284.1z"/>
		<path class="st20" d="M497.5,278.9c0,0-3.7,10.2-10.6,11.3c-3.6,0.6-6.5-0.4-7.9-2c-0.1,0-0.1,0-0.2,0.1c0,0,0-0.1,0-0.1
			c3.3-6,17.2-9.2,18.5-9.4C497.4,278.8,497.4,278.8,497.5,278.9C497.4,278.9,497.5,278.9,497.5,278.9z"/>
		<path class="st20" d="M474.8,219.2c-0.6,5.4-0.8,12-1,15.8c-0.3,6.9-5.7,16.7-5.7,16.7l-0.4,0.1c0,0,0,0,0,0
			c-2.3-0.6-11.4-12.4-4.8-22C468.7,221.1,473.7,219.5,474.8,219.2z"/>
	</g>
	<g id="Mariposas">
		<path class="st21" d="M161.2,193.9l5.9,8.8l-10.7,7.1c-6.9,4.6-16.2,3.3-23.3-2.4l1.4,2.1c0.6,0.9,0.5,2.1-0.3,2.7l-0.1,0.1
			c-0.8,0.5-1.9,0.2-2.6-0.8l-1.4-2.1c2.5,8.8,0.1,17.9-6.7,22.5l-10.7,7.1l-5.9-8.8c-5.6-8.3-6.8-18.1-4.1-25.9
			c-5.2-1.6-10.1-5.2-13.7-10.5l-4.9-7.4l8.9-5.9c5.5-3.7,12.9-2.8,18.7,1.5l-1.7-2.5c-0.3-0.5-0.5-1.1-0.4-1.6
			c-2.6-3-5.8-5.9-8.8-6.1c0.1,1-0.3,1.9-1,2.4c-1.2,0.8-3,0.3-4-1.2c-1-1.5-0.8-3.3,0.4-4.1c1.2-0.8,3-0.3,4,1.2
			c0,0,0.1,0.1,0.1,0.1c3.6,0,7.2,3.1,10.1,6.4c0,0,0,0,0,0c0,0,0,0,0,0c0,0,0,0,0,0c-1.9-3.9-3.4-8.5-2.1-11.8c0,0-0.1-0.1-0.1-0.1
			c-1-1.5-0.8-3.3,0.4-4.1c1.2-0.8,3-0.3,4,1.2c1,1.5,0.8,3.3-0.4,4.1c-0.8,0.5-1.8,0.5-2.7,0c-1,2.9,0.5,7.1,2.3,10.6
			c0.4,0.2,0.8,0.5,1.1,0.9l1.7,2.5c-1.7-7.1,0.4-14.2,5.8-17.9l8.9-5.9l4.9,7.4c3.5,5.3,5,11.2,4.5,16.7
			C147.1,180.6,155.7,185.5,161.2,193.9z"/>
		<path class="st22" d="M360.9,120.9l-2.5,5.3l-8.6-4.1c-5.5-2.6-8.8-7.9-8.5-13.2l-0.6,1.3c-0.3,0.6-1,0.8-1.6,0.5l-0.1,0
			c-0.6-0.3-0.9-1-0.7-1.6l0.6-1.3c-3.9,3.5-10.1,4.4-15.6,1.8l-8.6-4.1l2.5-5.3c2.4-5,7.4-8.1,13-8.5c-1.3-3.2-1.3-6.8,0.2-10
			l2.1-4.5l7.2,3.4c4.4,2.1,7.1,6.3,7.1,10.5l0.7-1.5c0.1-0.3,0.4-0.5,0.7-0.6c0.6-2.1,0.9-4.5-0.3-6.2c-0.5,0.3-1.2,0.3-1.8,0
			c-1-0.5-1.4-1.6-1-2.5c0.4-0.9,1.6-1.2,2.5-0.8c1,0.5,1.4,1.6,1,2.5c0,0,0,0.1,0,0.1c1.5,1.9,1.3,4.7,0.6,7c0,0,0,0,0,0
			c0,0,0,0,0,0c0,0,0,0,0,0c1.4-2,3.4-3.9,5.8-4c0,0,0-0.1,0-0.1c0.4-0.9,1.6-1.2,2.5-0.8c1,0.5,1.4,1.6,1,2.5
			c-0.4,0.9-1.6,1.2-2.5,0.8c-0.6-0.3-1-0.8-1.1-1.4c-2.1,0.2-3.8,2-5.1,3.8c0.1,0.3,0.1,0.5,0,0.8l-0.7,1.5
			c3.3-2.6,8.2-3.3,12.6-1.2l7.2,3.4l-2.1,4.5c-1.5,3.2-4.3,5.4-7.6,6.5C362.5,110,363.3,115.8,360.9,120.9z"/>
		<path class="st21" d="M497.5,230.1c-2.1-4.6-5.9-7.8-9.9-8.7c0.7-2.6,0.5-5.7-0.8-8.7l-1.8-4.1l-4.9,2.2c-3,1.4-4.7,4.7-4.4,8.4
			l-0.6-1.4c-0.1-0.2-0.3-0.4-0.5-0.5c-0.6-1.9-1-4.1-0.2-5.5c0.4,0.3,0.9,0.4,1.3,0.2c0.7-0.3,0.9-1.2,0.6-2
			c-0.4-0.8-1.2-1.2-1.9-0.9c-0.7,0.3-0.9,1.2-0.6,2c0,0,0,0.1,0,0.1c-0.1,0.2-0.2,0.3-0.3,0.5c-0.1-0.3-0.3-0.6-0.6-0.8
			c-0.7-0.5-1.6-0.5-2.1,0.1c-0.5,0.6-0.3,1.5,0.4,2.1c0,0,0,0,0.1,0.1c-0.1,1.4,0.8,3,2,4.4c-0.1,0.1-0.1,0.1-0.1,0.2
			c0,0.2,0,0.6,0.1,0.9l0.6,1.4c-0.1-0.1,5.2,8.2,6.8,15.4c0-0.1,0-0.1,0-0.2l0.5,1.2c0.2,0.5,0.8,0.8,1.2,0.6l0,0
			c0.4-0.2,0.6-0.8,0.4-1.3l-0.5-1.2c3.1,3.5,7.6,4.9,11.4,3.2l5.9-2.6L497.5,230.1z M472,213.4c0.4,0.1,0.8,0,1.1-0.3
			c-0.1,1.1,0.1,2.4,0.5,3.6C472.7,215.7,472,214.5,472,213.4z M473.7,217.2C473.7,217.2,473.7,217.2,473.7,217.2
			C473.7,217.2,473.7,217.2,473.7,217.2L473.7,217.2z"/>
		<path class="st23" d="M428.6,211.6l-1,5.3l-7.9-1.5c-5.1-0.9-8.9-4.8-9.8-9.5l-0.2,1.3c-0.1,0.6-0.7,0.9-1.3,0.8l-0.1,0
			c-0.6-0.1-1-0.7-0.9-1.2l0.2-1.3c-2.5,4.1-7.5,6.4-12.6,5.4l-7.9-1.5l1-5.3c0.9-5,4.4-8.9,9-10.7c-1.7-2.5-2.5-5.6-1.9-8.8
			l0.8-4.4l6.6,1.2c4.1,0.8,7.2,3.8,8.1,7.5l0.3-1.5c0.1-0.3,0.2-0.5,0.5-0.7c0.1-2-0.2-4.2-1.5-5.4c-0.4,0.4-0.9,0.6-1.5,0.5
			c-0.9-0.2-1.5-1-1.4-1.9c0.2-0.9,1-1.5,1.9-1.3c0.9,0.2,1.5,1,1.4,1.9c0,0,0,0.1,0,0.1c1.7,1.3,2,3.8,2,6c0,0,0,0,0,0c0,0,0,0,0,0
			c0,0,0,0,0,0c0.7-2.1,2-4.3,4-4.9c0,0,0-0.1,0-0.1c0.2-0.9,1-1.5,1.9-1.3c0.9,0.2,1.5,1,1.4,1.9c-0.2,0.9-1,1.5-1.9,1.3
			c-0.6-0.1-1-0.5-1.2-1c-1.7,0.7-2.8,2.7-3.4,4.6c0.1,0.2,0.2,0.5,0.1,0.7l-0.3,1.5c2.2-3.1,6.1-4.9,10.2-4.1l6.6,1.2l-0.8,4.4
			c-0.6,3.2-2.4,5.8-4.9,7.6C427.7,201.6,429.6,206.5,428.6,211.6z"/>
	</g>
</g>
</svg>
