<?xml version="1.0" encoding="utf-8"?>
<!-- Generator: Adobe Illustrator 22.0.1, SVG Export Plug-In . SVG Version: 6.00 Build 0)  -->
<svg version="1.1" id="Layer_1" xmlns="http://www.w3.org/2000/svg" xmlns:xlink="http://www.w3.org/1999/xlink" x="0px" y="0px"
	 viewBox="0 0 512 512" style="enable-background:new 0 0 512 512;" xml:space="preserve">
<style type="text/css">
	.st0{fill:#EAAF88;}
	.st1{fill:#F4B990;}
	.st2{fill:#543825;}
	.st3{fill:#CC6A4C;}
	.st4{fill:#DBB454;}
	.st5{fill:#E08E24;}
	.st6{fill:#E5A87F;}
	.st7{fill:#EA9C7A;}
	.st8{fill:#DAEDF3;}
	.st9{fill:#C6DBE0;}
</style>
<g id="_x37_">
	<g>
		<path class="st0" d="M318.9,318.5c0,0,0-24,23.4-21.4c23.4,2.7,38.1,23.4,24,36.7c-14.1,13.3-38.1,0-38.1,0L318.9,318.5z"/>
		<path class="st1" d="M247.8,425.5c103.2-1.6,94.1-96.4,94.1-96.4c22-45.6-22.8-69.2-95.6-71.9S147.8,291,147.8,291
			c-16.6-5.4-46.6,0.8-40,23.6c6.6,22.8,37.7,16.5,37.7,16.5C133.1,378.6,160.3,422.1,247.8,425.5z"/>
		<path class="st2" d="M209.4,357.5c-8.1,0-14.5-6.4-14.5-14.5c0-5.2,2.7-9.7,6.6-12.2c3.5,2.7,7.9,5,13.1,6.6
			c3.1,0.8,6.2,1.5,9.1,1.7c0.2,1.2,0.4,2.5,0.4,3.7C224.1,350.9,217.7,357.5,209.4,357.5z"/>
		<path class="st2" d="M290.7,359.6c-7.5,3.3-16,0-19.3-7.3c-2.1-4.6-1.5-9.7,1-13.7c4.1,1.2,9.1,1.5,14.5,0.8
			c3.1-0.4,6.2-1,8.9-2.1c0.6,0.8,1.2,1.9,1.9,3.1C301.1,347.8,297.7,356.5,290.7,359.6z"/>
		<path class="st3" d="M282.1,315.6c3.9-5.8-5.4-17.8-21.7-20.6c-13.7-2.3-26.2,2.9-30.1,11.2c-3.9,8.3,20.4,6.6,27.4,7.8
			C263.7,315.1,277.9,321.4,282.1,315.6z"/>
		<path class="st4" d="M150.1,374.1c0,0,22.4,10.4,31.5,14c9.8,3.7,50.4-6.5,91.8-3.7c41.4,2.8,26.1,42.7,26.1,42.7
			c-3.8-13.8-29.4-17.1-29.4-17.1c15.4,10.1,8.7,25.4,8.7,25.4c-8.6-14-48.3-16.6-67.2-18.5c-18.9-1.8-41.1-12.5-47.2-24.7
			C162.5,388.3,150.1,374.1,150.1,374.1z"/>
		<path class="st5" d="M148.9,371.3c12.4,12.5,31.3,19.1,31.3,19.1c9.1,4.9,44.1-1.1,85.5,1.8c41.4,2.8,26.1,42.7,26.1,42.7
			c-3.8-13.8-29.4-17.1-29.4-17.1c15.4,10.1,8.7,25.4,8.7,25.4c-8.6-14-48.6-15.2-67.2-18.5c-15.9-2.8-36.4-19.1-46.7-31.6
			C154.5,389.7,136.3,358.4,148.9,371.3z"/>
	</g>
	<path class="st6" d="M126.9,216.9l51.5,44.6l-4.7,9.5c0,0-64.2,54.3-90.7,67.7c0,0-18.5,22.3-42.7,24.6c-10.4,1,5.8-17.3,8.3-18.8
		c2.5-1.5-22.5-6.4-22.9-12.5c-0.4-6.1,14.2-5.4,17-6.1c2.9-0.7-1.6-6.3-13.4-9.9c-11.8-3.6,13.2-6.3,17.2-7c4-0.7-22.8-14-23.9-18
		c3.1-11.2,21.9-5,21.9-5l13.8,4.7C58.4,290.9,103.9,228.9,126.9,216.9z"/>
	<path class="st6" d="M439.1,215.8c0,0,6.6-21,10-25.5c4.1-5.5,13.9-2.8,15.9,0.9c1.9,3.7-8.8,20.1-5.4,17.8
		c3.4-2.3,35.2-8.7,29.2,2.1c-5.4,5.6-23.5,8-20.8,12.5c1.5,2.6,21.1-6.8,25-2.1c3.9,4.7-21.6,17.4-18.8,16.7s27-2.3,18.8,4.2
		c-5.9,4.7-16.7,2.1-16.7,6.3c0,2.1,12.5,0,10.4,4.2c-3.2,6.4-32.1,14.5-32.1,14.5c-28.4,8.8-112.3,14.3-112.3,14.3l-10-3.6
		l6.1-67.9C363.2,202.8,439.1,215.8,439.1,215.8z"/>
	<path class="st1" d="M98.8,150.7c0,0-54.2,114.7-48,210.6c0,0-25,16.7-31.3,33.4s20.8,22.9,70.9,25s35.4-12.5,33.4-20.8
		c-2.1-8.3,54.2-95.9,58.4-112.6C186.3,269.5,159.2,138.2,98.8,150.7z"/>
	<path class="st7" d="M182.2,286.2c-4.2,16.7-60.5,104.2-58.4,112.6c2.1,8.3,16.7,22.9-33.4,20.8c-16.9-0.7-31.1-1.9-42.4-3.8
		c20.7-3.8,48.9-9.8,52.8-15c6.3-8.3,54.2-85.5,56.3-116.8c1.7-25.1,7.4-52.8,4.2-84.3C177.6,234.9,184.4,277.2,182.2,286.2z"/>
	<path class="st1" d="M396.4,152.8c0,0,54.2,114.7,48,210.6c0,0,25,16.7,31.3,33.4c6.3,16.7-20.8,22.9-70.9,25s-35.4-12.5-33.4-20.8
		S317.2,305,313,288.3C308.9,271.6,336,140.3,396.4,152.8z"/>
	<path class="st7" d="M313,288.3c4.2,16.7,60.5,104.2,58.4,112.6s-16.7,22.9,33.4,20.8c16.9-0.7,31.1-1.9,42.4-3.8
		c-20.7-3.8-48.9-9.8-52.8-15c-6.3-8.3-54.2-85.5-56.3-116.8c-1.7-25.1-7.4-52.8-4.2-84.3C317.6,237,310.8,279.3,313,288.3z"/>
	<path class="st8" d="M106.6,163.7c-9.2-10.8-9.4-26.7-0.5-37.7c17.4-21.4,54.6-50.4,128.1-50.4c97.9,0,156.2,36.6,172.5,75.5
		c4.9,11.6,0.9,25-9.2,32.4c-25.6,18.9-78.3,60.9-86.2,92.2c-10.4,41.7-123.1,28-129.3,12.5C173.8,267.4,139.7,202.7,106.6,163.7z"
		/>
	<path class="st9" d="M397.6,183.5c-25.6,18.9-78.3,60.9-86.1,92.3c-10.4,41.7-123.1,28-129.3,12.5c-8.3-20.8-42.5-85.6-75.5-124.6
		c-9.2-10.8,73.4,59.9,83.9,95.4c5.1,17.2,108.4,31.3,118.8-10.4c7.3-29,94.1-105.6,97.4-97.5C411.6,162.7,407.7,176.1,397.6,183.5z
		"/>
</g>
</svg>
